<svg width="640" height="400" viewBox="0 0 640 400" fill="none" xmlns="http://www.w3.org/2000/svg">
<g clip-path="url(#clip0)">
<path d="M184.752 80L0 400H640V4.84113e-08H323.32C295.233 -0.000690769 267.642 7.39198 243.318 21.435C218.994 35.4779 198.795 55.6763 184.752 80Z" fill="#1B7064"/>
<path d="M580.512 24.36L593.904 66.76C591.313 66.481 588.693 66.6516 586.16 67.264C585.07 71.7338 584.877 76.3752 585.592 80.92C579.823 78.6705 573.756 77.2744 567.584 76.776C567.401 83.5022 568.548 90.1984 570.96 96.48C557.944 91.016 548.432 95.768 548.432 95.768C547.908 104.017 550.304 112.188 555.2 118.848C553.672 118.624 552.176 118.488 550.72 118.408L640 250.352V45.272L639.824 45.192C639.824 45.192 631.408 57.848 633.472 73.336C630.257 69.808 626.582 66.7295 622.544 64.184L630.904 37.432C634.013 37.3393 637.086 36.7367 640 35.648V15.288C636.921 13.9763 633.637 13.2102 630.296 13.024C634.632 9.472 637.352 5.12 638.184 0H530.52C536 13.832 554.648 23.56 580.512 24.36ZM607.264 22.448C607.264 22.704 607.224 22.968 607.224 23.248C607.224 29.376 611.328 36.184 624.512 37.336L616.536 60.8C614.132 59.5523 611.64 58.4827 609.08 57.6C607.787 61.9666 607.119 66.4942 607.096 71.048C606.09 70.4606 605.054 69.9265 603.992 69.448L588.456 24.344C594.766 24.209 601.054 23.575 607.264 22.448Z" fill="#003C3C"/>
<path d="M337.104 201.936C328.496 191.032 316 187.2 316 187.2C316 187.2 310.216 194.04 310.624 205.92C307.576 203.537 304.227 201.565 300.664 200.056C300.664 200.056 292.04 214.784 296.56 231.256C290.116 226.939 282.747 224.199 275.048 223.256C275.048 223.256 271.448 238.032 278.656 251.88C265.4 244.8 250.4 245.416 250.4 245.416C250.668 249.961 251.578 254.446 253.104 258.736C240.104 256.336 232.112 262.264 232.112 262.264C232.609 266.838 234.01 271.267 236.232 275.296C230.041 275.141 223.861 275.893 217.888 277.528C219.859 283.494 222.922 289.041 226.92 293.888L226.2 294.864C223.102 294.828 220.014 295.237 217.032 296.08C214.063 290.377 210.25 285.155 205.72 280.592C202.649 283.944 200.068 287.715 198.056 291.792C190.728 280.8 180.888 279.2 180.888 279.2C177.957 282.733 175.755 286.811 174.408 291.2C170.199 286.65 165.348 282.74 160.008 279.592C156.894 285.56 154.991 292.085 154.408 298.792C145.096 288.176 134.464 288.296 134.464 288.296C130.366 295.483 128.935 303.886 130.424 312.024C122.071 306.36 112.204 303.349 102.112 303.384C101.673 309.655 102.511 315.95 104.576 321.888C98.6389 320.208 92.4894 319.4 86.32 319.488C86.7405 325.87 88.3693 332.114 91.12 337.888C76.64 334.264 62.44 338.416 62.44 338.416C64.6557 345.438 68.3553 351.901 73.288 357.368C65.8565 357.147 58.4715 358.613 51.688 361.656C51.688 361.656 57.648 380.736 76 387.424L76.432 387.568C66.16 390.176 57.856 396.312 53.6 400H413.032L353.712 176.672C346.4 180.264 338.792 188.92 337.104 201.936Z" fill="#003C3C"/>
<path d="M365.808 199.872C374.2 187.832 385.264 186.624 385.264 186.624C389.007 193.973 390.803 202.159 390.48 210.4C400 198.688 414.248 195.832 414.248 195.832C416.646 203.189 417.282 211.008 416.104 218.656C426.816 209.72 437.304 211.088 437.304 211.088C437.304 211.088 440.888 223.888 436.224 237.112C443.897 231.868 452.832 228.77 462.104 228.136C462.201 236.51 460.626 244.819 457.472 252.576C466.448 252.84 471.8 256.696 471.8 256.696C470.621 261.136 468.802 265.38 466.4 269.296C470.526 270.725 474.345 272.921 477.656 275.768C477.656 275.768 476.056 284.68 466.264 291.68C473.68 295.512 476.752 300.744 476.752 300.744C471.926 306.752 465.736 311.522 458.696 314.656C462.472 318.951 465.418 323.91 467.384 329.28C460.977 332.22 454.01 333.74 446.96 333.736C452.006 338.904 455.904 345.078 458.4 351.856C453.831 353.282 449.111 354.171 444.336 354.504C447.488 359.413 449.379 365.024 449.84 370.84C449.84 370.84 443.632 375.2 433.48 374.4C435.648 380.034 436.339 386.128 435.488 392.104C435.488 392.104 428.704 394.88 419.208 392.144C420.136 394.704 420.871 397.33 421.408 400H640V290.072C636.361 286.559 633.278 282.513 630.856 278.072C625.935 284.085 619.58 288.762 612.376 291.672C609.33 285.542 607.607 278.839 607.32 272C599.888 283.744 589.528 285.664 589.528 285.664C586.095 280.022 583.847 273.739 582.92 267.2C568.36 279.272 554.84 274.976 554.84 274.976C554.56 269.856 555.1 264.725 556.44 259.776C549.998 260.691 543.435 260.245 537.176 258.464C538.828 250.385 542.469 242.846 547.768 236.528C539.545 238.211 531.037 237.882 522.968 235.568C522.968 235.568 527.704 220.416 539.632 210.344L539.176 210.4C519.768 212.408 506.072 197.872 506.072 197.872C510.839 192.169 516.838 187.62 523.616 184.568C516.791 181.806 510.636 177.613 505.568 172.272C505.568 172.272 516.528 162.328 531.168 159.248C526.162 155.257 521.958 150.355 518.776 144.8C524.289 142.025 530.178 140.068 536.256 138.992C531.8 134.557 528.292 129.264 525.944 123.432C533.623 119.651 542.15 117.917 550.696 118.4L470.552 0H323.352C317.904 0.00187813 312.459 0.282244 307.04 0.84L353.744 176.672C359.704 183.232 363.86 191.226 365.808 199.872Z" fill="#5DBFA5"/>
<path d="M502.944 69.6238V82.5518H541.736V69.6238H502.944Z" fill="#FFE25A"/>
<path d="M336.456 159.112H323.528V172.04H336.456V159.112Z" fill="#FFE25A"/>
<path d="M297.672 159.112V172.04H323.536V159.112H297.672Z" fill="#00DC82"/>
<path d="M550.224 131.944V144.872H576.088V131.944H550.224Z" fill="#FF6446"/>
<path d="M576.088 119.008V131.936H627.808V119.008H576.088Z" fill="#00DC82"/>
<path d="M413.608 80.4082H400.68V93.3362H413.608V80.4082Z" fill="#28A6EC"/>
<path d="M348.96 93.3362V106.264H400.68V93.3362H348.96Z" fill="#00DC82"/>
<path d="M436.464 138.408H407.144V151.336H436.464V138.408Z" fill="#FFE25A"/>
<path d="M289.032 3.73584C268.895 8.15598 249.801 16.4248 232.8 28.0878C225.12 47.7118 216.352 69.8478 207.312 92.0878C204.644 83.0088 199.039 75.0715 191.376 69.5198C189.048 72.9198 186.832 76.3998 184.752 79.9998L150.016 140.16H150.656L168.872 186.608C154.856 229.304 111.152 342.848 88.984 400H148.632C171.352 324.712 222.976 157.216 250.176 97.7438C257.16 73.7678 274.88 33.9518 289.032 3.73584ZM178.216 161.424L167.272 138.224C176.816 136.544 184.976 133.936 191.496 130.44C186.976 141.192 182.52 151.616 178.216 161.424Z" fill="#002D2D"/>
<path d="M303.28 1.27197C298.48 1.87997 293.731 2.70131 289.032 3.73597C274.88 33.952 257.16 73.768 250.176 97.744C222.976 157.216 171.352 324.712 148.632 400H161.728C184.448 324.712 236.072 157.216 263.264 97.744C270.44 73.112 288.952 31.752 303.28 1.27197Z" fill="#003C3C"/>
<path d="M631.024 228.16C626.619 226.495 621.788 226.329 617.28 227.688L541.928 250.4C541.928 250.4 364.328 297.424 346.976 301.6C336.048 304.264 329.272 299.64 319.072 301.48C310.792 303.137 302.637 305.363 294.664 308.144C281.064 312.944 277.736 323.272 265.424 326.112C253.424 328.888 113.048 356.512 13.816 376.04L0 400H640V231.392C639.229 231.196 638.468 230.961 637.72 230.688L631.024 228.16Z" fill="#002D2D"/>
<path d="M490.328 146.552C507.328 143.296 532.032 147.704 541.76 153.32C559.512 184.84 552.776 240.88 544.448 258.48L460 278.768C447.776 266.096 439.664 193.208 441.024 175.568C449.12 163.2 471.312 150.2 490.328 146.552Z" fill="#28A5EB"/>
<path d="M552.048 157.328C552.048 157.328 542.36 216.704 478.008 234.128C504.48 255.328 527.776 274.44 547.056 267.688C566.336 260.936 559.32 176 552.048 157.328Z" fill="#002D2D"/>
<path d="M441.032 175.56C431.976 198.928 425.96 220.92 439.248 222.168C452.536 223.416 454.448 215.768 454.448 215.768L441.032 175.56Z" fill="#28A5EB"/>
<path d="M501.408 149.28L497.192 123.776L498.856 111.312C499.952 103.128 493.776 95.5438 485.056 94.3758C476.336 93.2078 468.384 98.9118 467.296 107.096L464.576 127.44C464.378 128.899 464.584 130.385 465.172 131.735C465.76 133.085 466.708 134.248 467.912 135.096C468.4 135.432 468.92 135.776 469.512 136.112L474.312 159.704C480.944 168.976 496.184 163.376 501.408 149.28Z" fill="#E6BEAA"/>
<path d="M469.256 131.44C475.512 131.264 481.496 132.24 485.488 134.544C481.112 137.696 473.36 138.064 469.488 136.144C465.616 134.224 465.096 133.4 465.096 133.4C465.096 133.4 465.664 131.544 469.256 131.44Z" fill="#003C3C"/>
<path d="M473.304 105.6C473.304 105.6 467.176 110.512 465.784 112.92C465.484 114.518 465.753 116.171 466.544 117.592C467.832 118.112 471.344 118.296 473.512 117.816C475.288 112.52 473.304 105.6 473.304 105.6Z" fill="#E6BEAA"/>
<path d="M473.512 117.816C469.648 119.104 467.184 119.32 465.656 118.36C464.128 117.4 464.368 114.528 465.784 112.92C468.632 113.4 471.2 115.2 473.512 117.816Z" fill="#003C3C"/>
<path d="M476.712 96.408C478.928 94.224 488.928 92.792 493.512 95.664C498.096 98.536 500.712 108.272 498.576 113.576C494.24 101.248 486.168 96.88 476.712 96.408Z" fill="#FF6446"/>
<path d="M501.03 119.688C501.755 116.395 500.964 113.423 499.264 113.049C497.564 112.675 495.598 115.041 494.874 118.333C494.149 121.625 494.94 124.598 496.64 124.972C498.34 125.346 500.306 122.98 501.03 119.688Z" fill="#E6BEAA"/>
<path d="M493.832 104.664C487.904 93.288 482.92 78.84 472.232 79.992C463.936 80.896 465.24 95.872 469.784 100.736C473.136 97.464 480 94.224 493.832 104.664Z" fill="#003C3C"/>
<path d="M413.52 249.16V256.192L465.128 269.784L493.36 264.36V233.488L413.52 249.16Z" fill="#002D2D"/>
<path d="M545.232 157.68C555.432 161.536 592.24 216.08 593.072 224.224C593.904 232.368 583.2 243.664 576.216 239.712C569.232 235.76 536.568 194.64 536.288 186.472C536.008 178.304 532.664 152.936 545.232 157.68Z" fill="#E6BEAA"/>
<path d="M573.952 191.192L552.048 216.408L541.208 203.392L573.952 191.192Z" fill="#002D2D"/>
<path d="M541.76 153.32C541.76 153.32 564.4 164.52 576.16 190.024L542.84 207.392L527.88 182.896C527.88 182.896 528.52 155.432 541.76 153.32Z" fill="#28A5EB"/>
<path d="M487.704 214.808L525.12 207.392C548.32 211.456 576.52 211.768 586.272 215.64C595.248 219.208 596.152 231.64 594.48 235.8C589.752 241.928 583.688 241.512 574.752 241.512C565.816 241.512 536.008 229.048 526.512 222.904C521.208 227.928 512.552 229.888 503.312 227.928C497.352 231.616 488.792 231.616 488.792 231.616L487.704 214.808Z" fill="#E6BEAA"/>
<path d="M496.577 234.738L406.386 249.799L407.341 255.52L497.532 240.459L496.577 234.738Z" fill="#003C3C"/>
<path d="M494.312 235.288L403.632 250.864C402.711 251.018 401.766 250.824 400.982 250.317C400.197 249.811 399.63 249.03 399.392 248.128L384.8 192.288C384.668 191.789 384.642 191.268 384.722 190.758C384.803 190.248 384.989 189.761 385.268 189.326C385.547 188.892 385.913 188.521 386.344 188.236C386.774 187.951 387.259 187.759 387.768 187.672L478.4 172.096C479.32 171.937 480.266 172.129 481.051 172.634C481.836 173.139 482.403 173.921 482.64 174.824L497.248 230.672C497.38 231.169 497.408 231.687 497.329 232.195C497.25 232.703 497.067 233.189 496.792 233.623C496.516 234.057 496.153 234.429 495.726 234.715C495.299 235.002 494.818 235.197 494.312 235.288Z" fill="#5A7D7D"/>
<path d="M465.016 208.88C471.228 208.88 476.264 203.844 476.264 197.632C476.264 191.42 471.228 186.384 465.016 186.384C458.804 186.384 453.768 191.42 453.768 197.632C453.768 203.844 458.804 208.88 465.016 208.88Z" fill="#7B9393"/>
<path d="M464.8 202.264L470.616 203.864C470.8 203.917 470.996 203.92 471.182 203.873C471.368 203.826 471.538 203.731 471.675 203.597C471.812 203.463 471.912 203.295 471.963 203.11C472.015 202.925 472.016 202.73 471.968 202.544L469.928 194.696C469.881 194.51 469.785 194.339 469.651 194.201C469.517 194.064 469.348 193.964 469.163 193.913C468.977 193.862 468.782 193.861 468.596 193.91C468.41 193.959 468.24 194.056 468.104 194.192L466.632 195.64L465.608 191.72C465.561 191.534 465.465 191.363 465.331 191.225C465.197 191.088 465.028 190.988 464.843 190.937C464.657 190.886 464.462 190.885 464.276 190.934C464.09 190.983 463.92 191.08 463.784 191.216L456.584 198.296C456.448 198.43 456.349 198.597 456.298 198.781C456.247 198.965 456.246 199.16 456.294 199.344C456.341 199.529 456.437 199.698 456.571 199.834C456.705 199.971 456.872 200.069 457.056 200.12L460.712 201.136C461.368 201.341 462.068 201.358 462.733 201.184C463.398 201.01 464.001 200.652 464.472 200.152L467.112 197.56L468.52 196.168L470.016 201.928L466.2 200.872L464.8 202.264ZM461.128 199.472L458.568 198.768L464.224 193.168L465.216 197.008L463.328 198.864C463.059 199.167 462.707 199.383 462.315 199.486C461.924 199.588 461.511 199.572 461.128 199.44" fill="#5A7D7D"/>
<path d="M464.8 202.264L470.616 203.864C470.8 203.917 470.996 203.92 471.182 203.873C471.368 203.826 471.538 203.731 471.675 203.597C471.812 203.463 471.912 203.295 471.963 203.11C472.015 202.925 472.016 202.73 471.968 202.544L469.928 194.696C469.881 194.51 469.785 194.339 469.651 194.201C469.517 194.064 469.348 193.964 469.163 193.913C468.977 193.862 468.782 193.861 468.596 193.91C468.41 193.959 468.24 194.056 468.104 194.192L466.632 195.64L465.608 191.72C465.561 191.534 465.465 191.363 465.331 191.225C465.197 191.088 465.028 190.988 464.843 190.937C464.657 190.886 464.462 190.885 464.276 190.934C464.09 190.983 463.92 191.08 463.784 191.216L456.584 198.296C456.448 198.43 456.349 198.597 456.298 198.781C456.247 198.965 456.246 199.16 456.294 199.344C456.341 199.529 456.437 199.698 456.571 199.834C456.705 199.971 456.872 200.069 457.056 200.12L460.712 201.136C461.368 201.341 462.068 201.358 462.733 201.184C463.398 201.01 464.001 200.652 464.472 200.152L467.112 197.56L468.52 196.168L470.016 201.928L466.2 200.872L464.8 202.264ZM461.128 199.472L458.568 198.768L464.224 193.168L465.216 197.008L463.328 198.864C463.059 199.167 462.707 199.383 462.315 199.486C461.924 199.588 461.511 199.572 461.128 199.44" fill="#003C3C"/>
<path d="M480.448 267.632C464 257.664 433.768 251.048 421.6 251.048C409.432 251.048 402.28 256.352 399.2 273.488C396.12 290.624 391.72 363.256 392 372.912C392.28 382.568 406.232 380.448 408.656 371.248C416.408 341.8 436.096 313.072 434.384 281.944L480.448 267.632Z" fill="#E6BEAA"/>
<path d="M441.032 250.912C454.032 260 457.704 272.8 451.2 278.768C461.096 278.768 486.688 276.832 486.688 276.832V251.048L441.032 250.912Z" fill="#FF6446"/>
<path d="M391.912 359.2C398.512 360.312 401.76 365.472 400.528 368.584C399.296 371.696 395.464 372.968 390.8 371.696C388.296 371.016 386.08 367.8 386.8 364.328C387.52 360.856 389.128 358.704 391.912 359.2Z" fill="#003C3C"/>
<path d="M355.808 373.36C359.424 359.912 376.68 361.968 388.032 364.08C389.472 364.352 393.28 362.48 396.112 366.64C400.776 373.44 407.008 374.688 408.664 371.248C412.448 375.96 412.328 386.952 409.408 391.912C398.448 390.304 355.808 373.36 355.808 373.36Z" fill="#003C3C"/>
<path d="M397.912 395.36C387.096 395.36 368.488 392.288 359.968 384.776C353.296 378.896 353.704 373.48 358.72 370.76C361.744 369.112 371.968 370.512 378.208 375.048C390.208 383.776 402.544 383.888 408.328 389.12C411.808 392.272 406.504 395.36 397.912 395.36Z" fill="#002D2D"/>
<path d="M538.696 251.64C527.176 241.12 503.624 230.152 490.848 230.152C478.072 230.152 468.448 240.552 466.304 252.592C464.552 262.456 460.704 344.536 461 352.328C461.296 360.12 477 362.992 478.768 354.2C485.168 323.088 507.848 287.92 501.704 262.512L538.696 251.64Z" fill="#E6BEAA"/>
<path d="M512.2 235.384C523.016 243.288 523.688 251.64 520.872 259.008H541.208V237.712L512.2 235.384Z" fill="#FF6446"/>
<path d="M425.6 344.472C429.464 333.328 446.192 334.944 457.104 338.144C462.192 339.64 469.904 343.112 470.912 345.44C473.984 352.384 473.88 358 478.808 354.2C482.104 359.488 481.536 371.744 477.384 376.68C464.8 369.448 425.6 344.472 425.6 344.472Z" fill="#003C3C"/>
<path d="M427.88 342.12C423.88 343.48 424.2 350.12 431.432 356.648C438.664 363.176 453.832 367.8 460.736 373.32C467.016 378.344 473.256 379.216 476.288 377.592C478.928 376.184 477.952 372.92 473.816 369.16C468.216 364.032 454.672 351.456 446.512 346.52C438.352 341.584 432.304 340.632 427.88 342.12Z" fill="#002D2D"/>
<path d="M464.8 334.4C472 336.272 473.6 342.816 470.84 345.424C468.08 348.032 460.064 345.696 456.568 344.376C454.368 343.576 454.168 342.48 454.808 338.616C455.448 334.752 460.888 333.4 464.8 334.4Z" fill="#003C3C"/>
</g>
<defs>
<clipPath id="clip0">
<rect width="640" height="400" fill="white"/>
</clipPath>
</defs>
</svg>
