<svg viewBox="0 0 438 400" fill="none" xmlns="http://www.w3.org/2000/svg">
  <path d="M357.128 40C342.838 15.2485 316.429 0.000726059 287.848 0H149.28C120.699 0.000726059 94.2903 15.2485 80 40L10.72 160C-3.57061 184.752 -3.57061 215.248 10.72 240L80 360C94.2903 384.751 120.699 399.999 149.28 400H287.848C316.429 399.999 342.838 384.751 357.128 360L426.4 240C440.691 215.248 440.691 184.752 426.4 160L357.128 40Z" fill="#1B7064"/>
  <path d="M326.304 129.792C251.152 129.792 220.28 101.56 201.016 101.56C183.416 101.56 180.032 110.928 149.016 110.928C126.92 110.928 122.192 124.984 91.72 124.984C71.72 124.984 56.064 111.384 43.36 103.48L10.72 160C-3.57061 184.752 -3.57061 215.248 10.72 240L46.992 302.824L326.304 303.192V129.792Z" fill="#003C3C"/>
  <path d="M80 360C94.2903 384.751 120.699 399.999 149.28 400H287.848C316.429 399.999 342.838 384.751 357.128 360L423.04 245.84H14.088L80 360Z" fill="#003C3C"/>
  <ellipse cx="275.08" cy="41.568" rx="15.2" ry="15.2" fill="#5DBFA5"/>
  <path d="M294.824 97.88C291.032 97.88 288.12 100.528 286.024 103.48C284.756 102.204 283.023 101.499 281.224 101.528C277.432 101.528 274.52 104.176 272.424 107.128L271.2 101.04C270.312 96.864 268.712 96.824 267.64 100.96L264.944 111.2C264.492 111.005 264.004 110.905 263.512 110.904C260.824 110.904 258.752 113.56 257.272 116.56C225.648 128.4 209.272 155.224 182.072 166.368C181.2 162.368 179.096 157.568 173.984 157.568C171.846 157.613 169.794 158.421 168.2 159.848L167.464 156.376C166.584 152.2 164.984 152.16 163.912 156.296L162.872 160.296L161.416 153.392C160.528 149.216 158.928 149.176 157.856 153.312L154.856 164.864C154.159 164.22 153.245 163.863 152.296 163.864C148.72 163.864 146.248 168.528 144.776 172.512C101.808 181.128 74.328 235.624 32.376 235.624V271.24L408.552 270.872L426.4 240C440.691 215.248 440.691 184.752 426.4 160L373.296 68C349.184 86.192 327.024 104.416 303.36 109.44C302.92 105.48 301.248 97.88 294.824 97.88Z" fill="#002D2D"/>
  <path fill-rule="evenodd" clip-rule="evenodd" d="M41.904 190.928C38.804 190.93 35.7062 190.764 32.624 190.432C33.336 190.496 34.096 190.528 34.888 190.528C38.632 190.528 39.688 188.992 39.904 187.096C40.5279 187.171 41.1557 187.208 41.784 187.208C46.696 187.208 49.904 185.76 49.904 183.056C49.9107 181.034 48.7163 179.202 46.864 178.392C47.8138 177.494 48.3496 176.243 48.344 174.936C48.344 172.856 45.696 171.168 42.664 170.136C43.1334 169.35 43.3563 168.442 43.304 167.528C43.304 165.312 40.32 164 37.416 163.944C36.616 161.856 33.872 159.328 29.416 159.328C27.3376 159.277 25.2725 159.673 23.36 160.488C24.9478 159.51 25.9209 157.785 25.936 155.92C25.936 152.936 20.952 150.68 16.56 149.816L10.72 160C9.33166 162.401 8.07123 164.874 6.944 167.408H7.168C6.93509 167.765 6.80755 168.181 6.8 168.608C6.7445 169.726 7.18336 170.811 8 171.576L4.64 175.128L4.28 174.824L4.488 173.672C-3.17712 195.636 -0.902177 219.848 10.72 240L28.8 271.272H174.816C157.404 271.272 139.152 254.382 119.386 236.089C96.0425 214.486 70.586 190.928 41.904 190.928ZM15.672 162.52C17.9171 162.516 20.138 162.056 22.2 161.168C21.0956 161.834 20.3963 163.008 20.336 164.296C20.2754 165.89 20.9297 167.427 22.12 168.488C21.656 168.544 21.208 168.608 20.776 168.688V168.64C20.776 166.512 18.248 165.136 15.472 164.8C15.6433 164.194 15.7242 163.566 15.712 162.936C15.7108 162.796 15.6974 162.657 15.672 162.52ZM11.832 181.768C11.4633 181.195 11.2662 180.529 11.264 179.848C11.264 177.416 13.08 175.52 16.912 175.056C16.5314 174.531 16.2594 173.935 16.112 173.304H15.232C13.2265 173.403 11.2209 173.11 9.32799 172.44L6.12799 176.736C7.72951 178.782 8.95642 181.095 9.75199 183.568C10.3467 182.863 11.0486 182.255 11.832 181.768ZM28.064 189.824C25.664 189.432 23.376 188.936 21.168 188.352C20.8058 187.121 20.3179 185.931 19.712 184.8C23.28 184.8 25.92 183.952 27.032 182.4L27.688 184.928C27.3751 185.298 27.1974 185.764 27.184 186.248C27.1415 187.209 27.4941 188.146 28.16 188.84L28.064 189.824ZM27.656 178.512L29.336 183.632L30.448 179.432C29.8792 179.143 29.3428 178.795 28.848 178.392C28.7948 178.4 28.7421 178.407 28.6895 178.415H28.6895C28.355 178.464 28.0294 178.512 27.656 178.512ZM32.032 180.088C32.6408 180.288 33.2604 180.454 33.888 180.584C33.6626 181.115 33.5483 181.687 33.552 182.264C33.5438 182.403 33.5438 182.541 33.552 182.68C32.8601 182.705 32.1719 182.794 31.496 182.944L32.032 180.088Z" fill="#002D2D"/>
  <path d="M228 247.44C222.985 247.491 218.128 249.198 214.184 252.296C210.92 241.216 204.032 231.928 190.336 229.8C177.137 227.844 164.097 234.221 157.536 245.84L151.408 216.8C148.672 203.872 143.712 203.76 140.392 216.552L125.768 272.872H247.368C247.368 272.872 247.336 247.44 228 247.44Z" fill="#003C3C"/>
  <path d="M60.512 151.32L4.21602 225.6C5.90053 230.604 8.07928 235.428 10.72 240L22.792 260.904L66.792 147.064C64.2868 147.752 62.079 149.248 60.512 151.32Z" fill="#00DC82"/>
  <path d="M79.44 151.32C76.4971 147.44 71.4819 145.752 66.792 147.064L22.792 260.904L55.272 317.176H205.112L79.44 151.32Z" fill="#33E39B"/>
  <path opacity="0.2" fill-rule="evenodd" clip-rule="evenodd" d="M137.448 227.88L171.544 272.872L205.112 317.176H55.272L10.72 240C8.07928 235.428 5.90053 230.604 4.21602 225.6L45.384 171.272C47.128 172.24 48.36 173.48 48.36 174.896C48.3656 176.203 47.8298 177.454 46.88 178.352C48.7323 179.162 49.9267 180.994 49.92 183.016C49.919 183.22 49.8975 183.424 49.856 183.624C49.8833 184.415 49.65 185.194 49.192 185.84C49.4 185.904 49.6 185.968 49.784 186.04C51.3731 184.95 53.2658 184.39 55.192 184.44C60.008 184.44 64.424 185.584 64.424 188.2C64.4398 189.263 64.1021 190.301 63.464 191.152C66.472 191.536 68.248 192.784 68.872 194.48C71.7138 193.746 74.6415 193.399 77.576 193.448C84.896 193.448 89.36 198.032 89.36 201.88V202.208H90.736C97.112 202.208 108.6 205.864 108.6 211.2C108.609 212.845 108.043 214.441 107 215.712C112.96 217.176 115.88 225.304 117.152 230.424C118.52 229.226 120.27 228.554 122.088 228.528C128.48 228.528 131.848 236.816 133.448 243.304L137.448 227.88Z" fill="#003C3C"/>
  <path opacity="0.75" d="M205.112 317.176H106.016L30.056 241.208L49.784 190.76L142.456 234.488L205.112 317.176Z" fill="#99F1CD"/>
  <path fill-rule="evenodd" clip-rule="evenodd" d="M97.528 328.208H70.768C70.936 328.632 71.016 328.864 71.016 328.864H62.024L44.104 297.832C54.264 301.6 61.432 310.72 65.808 318.128C69.6 309.912 76.8 299.664 89.296 299.592C89.4849 299.592 89.6718 299.604 89.8577 299.616H89.8578H89.858C90.042 299.628 90.225 299.64 90.408 299.64C89.8565 298.603 89.5655 297.447 89.56 296.272C89.56 292.4 91.808 289.192 96.488 287.472C91.44 285.448 88.544 281.8 88.544 276.272C88.544 271.28 94.04 267.48 102.232 266.376C101.958 265.427 101.821 264.444 101.824 263.456C101.824 258.072 110.872 255.72 120.816 255.72C130.76 255.72 136.816 261.936 136.816 267.152V267.6C137.424 267.552 138.04 267.552 138.672 267.552C147.32 267.552 162.896 272.544 162.896 279.744C162.896 286.656 156.208 291.72 143.544 292.152C143.59 292.416 143.614 292.684 143.616 292.952C143.638 294.136 143.487 295.316 143.168 296.456C148.376 297.08 153.128 299.656 153.128 303.656C153.128 308.336 151.528 312.456 142.728 312.456C138.4 312.456 134.504 312.096 131.656 310.856L123.656 321.6C125.228 325.319 126.325 329.222 126.92 333.216H123.864L125.464 347.088H113.872L115.016 333.216H95.864C96.3333 331.52 96.8887 329.848 97.528 328.208ZM127.608 301.472C126.628 301.358 125.656 301.187 124.696 300.96L121.864 316.896L129.128 309.232C127.623 307.804 126.814 305.792 126.912 303.72C126.924 302.919 127.165 302.139 127.608 301.472ZM121.136 302.64L118.176 313.704L115.48 305.48C117.567 305.003 119.507 304.029 121.136 302.64ZM112.128 306.152C110.271 306.396 108.4 306.514 106.528 306.504C105.928 306.504 105.344 306.488 104.824 306.456C106.62 308.383 108.178 310.518 109.464 312.816C110.53 312.402 111.664 312.187 112.808 312.184C113.115 312.186 113.423 312.205 113.728 312.24L112.128 306.152Z" fill="#003C3C"/>
  <path d="M225.4 326.296C225.4 323.096 223.912 319.64 219.696 317.536C221.475 315.845 222.476 313.494 222.464 311.04C222.464 307.136 217.496 303.96 211.808 302.008C212.684 300.531 213.099 298.826 213 297.112C213 292.96 207.4 290.488 201.952 290.384C200.448 286.456 195.296 281.72 187.008 281.72C177.04 281.72 169.88 285.608 169.88 291.064C169.764 294.052 170.987 296.935 173.216 298.928C166.712 299.688 161.672 301.84 161.672 305.664C161.648 307.666 162.283 309.62 163.48 311.224C156.28 312.144 152.848 315.704 152.848 320.264C152.848 323.168 154.704 325.664 157.888 327.328C146.048 343.096 140.368 362.528 140.368 362.528H225.096C225.096 362.528 225.096 347.104 219.992 332.6C223.416 331.336 225.4 329.2 225.4 326.296Z" fill="#003C3C"/>
  <ellipse cx="196.56" cy="26.36" rx="4.776" ry="4.776" fill="#5DBFA5"/>
  <circle cx="94.616" cy="93.104" r="4.776" fill="#5DBFA5"/>
  <ellipse cx="241.176" cy="83.512" rx="2.39201" ry="2.392" fill="#5DBFA5"/>
  <ellipse cx="112.968" cy="49.744" rx="2.392" ry="2.392" fill="#5DBFA5"/>
  <circle cx="177.64" cy="66.752" r="2.392" fill="#5DBFA5"/>
  <ellipse cx="331.656" cy="56.768" rx="2.392" ry="2.392" fill="#5DBFA5"/>
  <path d="M149.28 400H287.848C316.429 399.999 342.838 384.751 357.128 360L385.928 310.16C265.056 317.216 153.016 339.52 82.216 363.56C96.9619 386.275 122.199 399.988 149.28 400Z" fill="#002D2D"/>
  <path d="M262.552 179.152V168.064H295.824V179.152H262.552Z" fill="#FFE25A"/>
  <rect x="220.28" y="245.6" width="11.088" height="11.088" fill="#FFE25A"/>
  <rect x="198.096" y="256.688" width="11.088" height="22.184" transform="rotate(-90 198.096 256.688)" fill="#00DC82"/>
  <path d="M279.184 217.12V206.032H301.368V217.12H279.184Z" fill="#FF6446"/>
  <path d="M301.368 206.032V194.944H345.736V206.032H301.368Z" fill="#00DC82"/>
  <rect x="203.568" y="171.504" width="11.088" height="11.088" fill="#28A6EC"/>
  <path d="M159.2 193.688V182.6H203.568V193.688H159.2Z" fill="#00DC82"/>
  <rect x="216.92" y="207.28" width="25.152" height="11.088" fill="#FFE25A"/>
  <path d="M276.32 347.344C281.792 340.792 287.192 334.736 293.856 334.592C300.52 334.448 317.192 349.416 317.192 355.024C317.192 360.632 305.888 367.64 296.752 369.088C287.616 370.536 281.656 367.76 276.976 363.128C272.296 358.496 273.288 350.976 276.32 347.344Z" fill="#336363"/>
  <path d="M222.056 328.952C210.16 328.952 200.456 327.352 189.424 319.88C182.104 314.92 172.776 314.528 168.976 320.952C164.84 327.952 166.128 340.632 177.312 349.128C187.312 356.728 206.84 362.376 219.248 362.376C230.576 362.376 240.152 352.776 240.152 344.32C240.152 335.864 232 328.952 222.056 328.952Z" fill="#003C3C"/>
  <mask id="mask0" mask-type="alpha" maskUnits="userSpaceOnUse" x="166" y="316" width="75" height="47">
  <path d="M222.056 328.952C210.16 328.952 200.456 327.352 189.424 319.88C182.104 314.92 172.776 314.528 168.976 320.952C164.84 327.952 166.128 340.632 177.312 349.128C187.312 356.728 206.84 362.376 219.248 362.376C230.576 362.376 240.152 352.776 240.152 344.32C240.152 335.864 232 328.952 222.056 328.952Z" fill="white"/>
  </mask>
  <g mask="url(#mask0)">
  <path d="M188.912 318.248C191.8 325.072 187.672 344.76 174.944 349.92C160.696 355.696 151.272 335.792 159.32 321.416C167.368 307.04 184.6 308.04 188.912 318.248Z" fill="#5A7D7D"/>
  </g>
  <path d="M206.176 343.408H203.776C203.453 343.406 203.144 343.273 202.921 343.039C202.698 342.805 202.579 342.491 202.592 342.168C202.695 338.78 203.444 335.443 204.8 332.336C204.939 332.04 205.194 331.815 205.504 331.713C205.815 331.612 206.153 331.643 206.44 331.8L208.536 332.944C209.08 333.241 209.304 333.907 209.048 334.472C208.016 336.951 207.441 339.596 207.352 342.28C207.318 342.907 206.804 343.4 206.176 343.408Z" fill="#002D2D"/>
  <path d="M268 281.872C260.352 280.344 253.736 283.248 248.944 290.296C244.152 297.344 220.416 323.688 213.592 333.496C207.616 342.048 212.968 355.48 226.56 355.48C242.344 356.048 261.232 344.768 270.824 331.52C277.872 338.568 306.096 362.472 350.12 370.224C352.719 367.004 355.062 363.585 357.128 360L385.648 310.6C377.296 309.136 370.664 307.864 367.528 306.96C354.84 303.296 281.056 284.472 268 281.872Z" fill="#5A7D7D"/>
  <path d="M229.6 343.936C238.104 333.4 261.336 347.712 276.272 344.504C281.76 343.32 300 355.2 300 362.4C300 376 291.68 383.2 283.544 383.2C272 383.2 248.728 375.2 238.4 369.344C228.072 363.488 223.792 351.088 229.6 343.936Z" fill="#003C3C"/>
  <mask id="mask1" mask-type="alpha" maskUnits="userSpaceOnUse" x="226" y="339" width="74" height="45">
  <path d="M229.6 343.936C238.104 333.4 261.336 347.712 276.272 344.504C281.76 343.32 300 355.2 300 362.4C300 376 291.68 383.2 283.544 383.2C272 383.2 248.728 375.2 238.4 369.344C228.072 363.488 223.792 351.088 229.6 343.936Z" fill="white"/>
  </mask>
  <g mask="url(#mask1)">
  <ellipse cx="239.36" cy="342.704" rx="19.752" ry="14.744" fill="#336363"/>
  </g>
  <path d="M227.2 345.896C232.568 336.608 242.568 340.088 249.688 343.832C256.808 347.576 267.616 355.192 278.856 358.56C290.096 361.928 295.056 368.8 292.544 374.4C286.496 387.92 266.08 384.56 246.688 376C224.336 366.16 222.864 353.408 227.2 345.896Z" fill="#002D2D"/>
  <path d="M316.944 280.4H238.04L222.432 228.4C222.155 227.44 222.342 226.405 222.938 225.602C223.535 224.8 224.472 224.323 225.472 224.312H296C298.422 224.311 300.557 225.902 301.248 228.224L316.944 280.4Z" fill="#003C3C"/>
  <path d="M373.6 298.984H296.92C295.463 298.984 294.016 298.752 292.632 298.296L238.04 280.4H316.944L373.6 298.984Z" fill="#5A7D7D"/>
  <path d="M292.12 298.128L238.04 280.4V282.072C238.037 283.581 239.006 284.921 240.44 285.392L292.112 302.336C293.834 302.904 295.635 303.193 297.448 303.192H373.6V298.984H297.456C295.643 298.985 293.842 298.696 292.12 298.128Z" fill="#336363"/>
  <path d="M278.968 287.656C280.97 281.202 287.176 276.996 293.912 277.528C299.016 277.872 304.992 282.968 309.32 287.328C313.648 291.688 306.848 299.008 297.704 297.592C292 296.696 282.76 292.08 278.968 287.656Z" fill="#F0C8B4"/>
  <path d="M307.584 284.32C301.184 284.32 294.928 288.496 294.928 293.056C294.928 300.016 302.44 306.896 309.328 310.864C316.16 300.44 315.2 284.32 307.584 284.32Z" fill="#FF6446"/>
  <path d="M348.8 161.144L345.72 175.088C345.487 176.144 345.83 177.245 346.624 177.981C347.417 178.716 348.54 178.976 349.576 178.664C352.136 177.95 354.566 176.835 356.776 175.36C355.584 170.504 348.8 161.144 348.8 161.144Z" fill="#A7816D"/>
  <path fill-rule="evenodd" clip-rule="evenodd" d="M341.192 170.056C342.212 170.616 343.357 170.908 344.52 170.904C345.179 170.897 345.833 170.797 346.464 170.608C347.684 170.266 348.886 169.86 350.064 169.392C351.918 168.61 353.632 167.529 355.136 166.192C355.55 165.813 355.643 165.197 355.36 164.712L350.696 156.624C350.392 156.097 349.743 155.881 349.184 156.12L337.632 161.056C336.713 161.448 336.039 162.258 335.819 163.232C335.599 164.206 335.859 165.227 336.52 165.976C337.056 166.592 337.648 167.224 338.272 167.856C339.13 168.731 340.114 169.472 341.192 170.056ZM338.159 163.762C338.209 163.539 338.365 163.353 338.576 163.264L349.168 158.744L352.8 165.04C351.692 165.918 350.47 166.642 349.168 167.192C348.068 167.626 346.947 168.002 345.808 168.32C344.65 168.663 343.404 168.531 342.344 167.952C341.476 167.477 340.681 166.879 339.984 166.176C339.392 165.568 338.832 164.968 338.32 164.392C338.168 164.22 338.108 163.986 338.159 163.762Z" fill="#003C3C"/>
  <path d="M393.288 129.752C387.144 115.72 370.788 109.324 356.756 115.468C342.724 121.612 336.328 137.968 342.472 152L358.824 189.4L392.96 174.472L387.048 160.944C395.474 152.89 397.967 140.428 393.288 129.752Z" fill="#F0C8B4"/>
  <path d="M337 164.664C336.723 164.665 336.454 164.569 336.24 164.392C335.992 164.192 335.835 163.9 335.803 163.583C335.772 163.266 335.868 162.949 336.072 162.704L350.816 144.744C351.083 144.398 351.517 144.224 351.949 144.291C352.381 144.358 352.742 144.654 352.893 145.064C353.043 145.474 352.959 145.934 352.672 146.264L337.928 164.224C337.702 164.504 337.36 164.666 337 164.664Z" fill="#003C3C"/>
  <path d="M358 113.656C343.6 118.976 334.624 135.32 333.744 139.792C332.864 144.264 333.672 147.592 337.16 147.592C339.053 147.588 340.885 146.926 342.344 145.72C342.574 145.516 342.88 145.419 343.185 145.454C343.491 145.489 343.767 145.653 343.944 145.904C345.784 148.44 346.28 149.728 346.64 153.56C346.832 155.552 347.44 156.576 348.808 156.352C349.8 156.192 350.52 155.36 350.072 153.648C348.776 148.648 348.824 146.616 352.968 145.48C359.856 143.584 362.664 160.624 381.408 159.744C386.592 159.504 390.208 158.272 393.016 155.048C397.488 149.952 398.992 139.256 394.616 129.752C389.056 117.768 375.312 107.264 358 113.656Z" fill="#003C3C"/>
  <path d="M362.656 176.456C363.456 166.776 377.856 154.632 390.296 152.496C393.43 151.894 396.639 151.781 399.808 152.16C400.821 152.306 401.696 152.944 402.144 153.864L407.112 164L362.656 176.456Z" fill="#B4B48C"/>
  <ellipse cx="353.476" cy="151.252" rx="3.744" ry="7.552" transform="rotate(-15.91 353.476 151.252)" fill="#F0C8B4"/>
  <path d="M252.056 239.272H234.496L233.552 235.76H251.112L252.056 239.272Z" fill="#5A7D7D"/>
  <path d="M282.024 246.296H264.472L263.528 242.784H281.088L282.024 246.296Z" fill="#28AAF0"/>
  <path d="M257.696 260.344H240.144L239.2 256.832H256.76L257.696 260.344Z" fill="#FF6446"/>
  <path d="M265.184 253.32H247.624L246.68 249.808H264.24L265.184 253.32Z" fill="#FFE65A"/>
  <path d="M246.912 246.296H236.376L235.44 242.784H245.968L246.912 246.296Z" fill="#00DC82"/>
  <path d="M260.96 246.296H250.424L249.48 242.784H260.016L260.96 246.296Z" fill="#5A7D7D"/>
  <path d="M271.744 260.344H261.208L260.272 256.832H270.8L271.744 260.344Z" fill="#5A7D7D"/>
  <path d="M286.376 260.344H275.84L274.904 256.832H285.432L286.376 260.344Z" fill="#00DC82"/>
  <path d="M279.224 253.32H268.696L267.752 249.808H278.288L279.224 253.32Z" fill="#5A7D7D"/>
  <path d="M244.112 253.32H238.256L237.32 249.808H243.168L244.112 253.32Z" fill="#5A7D7D"/>
  <path d="M261.416 239.272H255.568L254.624 235.76H260.48L261.416 239.272Z" fill="#00DC82"/>
  <path d="M288.592 253.32H282.736L281.8 249.808H287.648L288.592 253.32Z" fill="#5A7D7D"/>
  <path d="M404.448 163.152C383.512 164.248 344.952 179.416 335 195.6C325.912 210.384 335.936 270.528 358.112 297.248C353.024 297.288 350.832 302.848 353.76 307.48C358.56 315.048 366.56 321.72 376.16 327.024L426.4 240C437.956 219.983 440.289 195.946 432.8 174.08C424.452 169.601 415.654 166.018 406.552 163.392C405.868 163.198 405.158 163.117 404.448 163.152Z" fill="#FF6446"/>
  <path d="M358.336 195.072C375.792 204.624 383.496 224.928 374.544 245.584C365.128 267.304 346.4 299.52 339.2 307.248C332 314.976 319.344 315.76 309.288 310.864C299.232 305.968 297.184 293.6 299.248 285.856C301.312 278.112 326.16 214.656 335 195.608C343.848 190.984 351.776 191.48 358.336 195.072Z" fill="#FF6446"/>
  <path d="M346.824 232.8L323.576 222.528C320.376 230.32 317.04 238.744 313.856 246.832L336.256 256.736L346.824 232.8Z" fill="#00DC82"/>
  <path d="M323.904 242.128L327.904 239.192L330.048 237.592L330.912 245.544L326.032 243.384L323.888 244.984L331.304 248.264C331.785 248.475 332.342 248.415 332.765 248.105C333.189 247.794 333.416 247.282 333.36 246.76L332.192 235.928C332.135 235.406 331.805 234.954 331.325 234.742C330.845 234.529 330.289 234.588 329.864 234.896L327.616 236.544L327.032 231.12C326.977 230.597 326.647 230.144 326.165 229.932C325.684 229.72 325.126 229.783 324.704 230.096L318.744 234.448L317.144 238.448L324.904 232.784L325.472 238.08L322.6 240.184C321.741 240.893 320.542 241.022 319.552 240.512L316.8 239.328C316.512 240.048 316.232 240.76 315.944 241.472L318.688 242.688C320.391 243.515 322.416 243.298 323.904 242.128Z" fill="#003C3C"/>
  <path d="M356.84 283.496L354.072 281.896C361.064 269.934 367.407 257.604 373.072 244.96L376.008 246.224C370.292 258.983 363.893 271.425 356.84 283.496Z" fill="#BF4B35"/>
  <path d="M367.319 258.234L377.735 254.316L378.861 257.312L368.446 261.229L367.319 258.234Z" fill="#BF4B35"/>
  <path d="M414.16 190.104C421.593 204.226 426.585 219.502 428.928 235.288C429.784 233.536 430.568 231.76 431.328 229.968C428.687 215.541 423.866 201.601 417.032 188.624L414.16 190.104Z" fill="#BF4B35"/>
  <path d="M366.72 309.848C366.281 316.119 367.119 322.414 369.184 328.352C363.247 326.672 357.097 325.864 350.928 325.952C351.353 332.333 352.982 338.576 355.728 344.352C341.248 340.728 327.048 344.872 327.048 344.872C329.203 351.694 332.759 357.991 337.488 363.36C329.576 362.904 321.671 364.358 314.44 367.6C314.44 367.6 318.336 380.04 329.496 388.344C340.939 381.364 350.442 371.617 357.128 360L384.28 312.976C378.673 310.845 372.717 309.784 366.72 309.848Z" fill="#002D2D"/>
  <path d="M143.72 393.08C149.855 387.579 154.476 380.596 157.144 372.8C157.144 372.8 144.856 362.616 124.84 370.704C123.904 371.08 123 371.504 122.12 371.904C122.496 371.536 122.88 371.16 123.264 370.76C132.177 361.387 137.124 348.934 137.072 336C128.71 335.42 120.349 337.132 112.888 340.952C112.53 334.899 111.041 328.967 108.496 323.464C108.496 323.464 99.568 324.08 91.328 332.648C90.9085 328.811 89.9887 325.046 88.592 321.448C88.592 321.448 75.208 324.744 66.192 336.104L80 360C94.2903 384.751 120.699 399.999 149.28 400H170.72C170.72 400 158.752 391.744 143.72 393.08Z" fill="#002D2D"/>
</svg>
