<svg viewBox="0 0 24 24" fill="currentColor" xmlns="http://www.w3.org/2000/svg">
  <path
    fill-rule="evenodd"
    clip-rule="evenodd"
    d="M20.6743 4.9959C18.5966 3.30174 15.3111 3.01474 15.1723 3.00257C14.9529 2.98343 14.7446 3.10954 14.6546 3.31305C14.6511 3.32 14.4677 3.86008 14.2903 4.38103C16.7049 4.80979 18.3454 5.76123 18.4329 5.81342C18.8426 6.05519 18.9797 6.58831 18.7406 7.00316C18.582 7.27972 18.2949 7.43452 18 7.43452C17.8534 7.43452 17.706 7.39713 17.5706 7.31712C17.5466 7.30233 15.1397 5.91256 12.0017 5.91256C8.86286 5.91256 6.45514 7.3032 6.43114 7.31712C6.02229 7.55802 5.49771 7.41626 5.26029 7.00055C5.02286 6.58657 5.16086 6.05519 5.56886 5.81342C5.65629 5.76123 7.30286 4.80631 9.72429 4.37842C9.53743 3.85139 9.34886 3.32 9.34543 3.31305C9.25543 3.10867 9.04714 2.97995 8.82771 3.00257C8.68886 3.01387 5.40343 3.30087 3.29829 5.01852C2.19771 6.04997 0 12.0804 0 17.2942C0 17.3864 0.0231429 17.476 0.0685714 17.556C1.58657 20.2608 5.72486 20.9687 6.66771 20.9991C6.67371 21 6.67886 21 6.684 21C6.85029 21 7.00714 20.9191 7.10571 20.7826L8.12571 19.3806C5.88857 18.8336 4.70571 17.9735 4.63457 17.9204C4.254 17.636 4.17171 17.0916 4.452 16.7046C4.73143 16.3193 5.26629 16.2341 5.64686 16.5167C5.67857 16.5376 7.86171 18.0883 12 18.0883C16.1546 18.0883 18.3317 16.5315 18.3531 16.5159C18.7337 16.2358 19.2703 16.3202 19.5489 16.7081C19.8266 17.0942 19.746 17.6352 19.3671 17.9187C19.296 17.9717 18.1191 18.8301 15.8871 19.3772L16.8943 20.7817C16.9929 20.9191 17.1497 20.9991 17.316 20.9991C17.322 20.9991 17.3271 20.9991 17.3323 20.9983C18.276 20.9678 22.4143 20.2599 23.9314 17.5551C23.9769 17.4751 24 17.3856 24 17.2934C24 12.0804 21.8023 6.04997 20.6743 4.9959ZM8.57143 15.4792C7.62429 15.4792 6.85714 14.506 6.85714 13.305C6.85714 12.1039 7.62429 11.1307 8.57143 11.1307C9.51857 11.1307 10.2857 12.1039 10.2857 13.305C10.2857 14.506 9.51857 15.4792 8.57143 15.4792ZM15.4286 15.4792C14.4814 15.4792 13.7143 14.506 13.7143 13.305C13.7143 12.1039 14.4814 11.1307 15.4286 11.1307C16.3757 11.1307 17.1429 12.1039 17.1429 13.305C17.1429 14.506 16.3757 15.4792 15.4286 15.4792Z"
  />
</svg>
