<svg viewBox="0 0 437 400" fill="none" xmlns="http://www.w3.org/2000/svg"><path d="M357.024 40a79.984 79.984 0 00-29.273-29.282A79.955 79.955 0 00287.764 0H149.237a79.955 79.955 0 00-39.987 10.719A79.986 79.986 0 0079.977 40l-69.26 120a80.019 80.019 0 000 80l69.26 120a79.994 79.994 0 0029.273 29.282A79.955 79.955 0 00149.237 400h138.527a79.955 79.955 0 0039.987-10.718A79.992 79.992 0 00357.024 360l69.252-120a80.023 80.023 0 000-80L357.024 40z" fill="#D2D2BA"/><path d="M189.936 57.064a25.005 25.005 0 0017.684-7.327 25.02 25.02 0 007.325-17.689V0H164.92v32.048a25.024 25.024 0 0025.016 25.016z" fill="#FFE659"/><path d="M375.946 217.944v-79.296H249.511v79.296h126.435z" fill="#F5F9F9"/><path d="M371.651 142.944H253.806v70.704h117.845v-70.704z" fill="#5DBFA5"/><path d="M253.806 183.608c4.638 0 5.846 3.696 8.621 3.696 2.775 0 7.294-6.344 10.869-6.344s5.23 2.608 7.79 2.608c2.559 0 6.798-4.312 10.101-4.312 7.254 0 35.805 8.048 49.473 8.048 4.351 0 9.597-8.048 12.677-8.048 3.079 0 3.998 2.256 6.973 2.256 2.976 0 3.775 2.096 5.327 2.096 1.551 0 4.159-4.352 6.006-4.352v34.4H253.806v-30.048z" fill="#1B7064"/><path d="M309.389 155.2l-44.259 58.4h23.314l23.193-59.928a4.103 4.103 0 00-2.248 1.528z" fill="#00DC82"/><path d="M316.059 155.2a4.178 4.178 0 00-4.454-1.504l-23.194 59.928h71.867L316.059 155.2z" fill="#33E39B"/><path opacity=".75" d="M360.31 213.648h-34.893l-26.808-26.296 7.029-18.192 32.615 15.36 22.057 29.128z" fill="#99F1CD"/><path d="M257.309 122.136h147.157L357.023 40a79.99 79.99 0 00-29.272-29.282A79.96 79.96 0 00287.764 0h-38.237v114.328a7.809 7.809 0 007.782 7.808z" fill="#5A7D7D"/><path d="M399.923 114.328L357.023 40a79.99 79.99 0 00-29.272-29.282A79.96 79.96 0 00287.764 0h-30.455v114.328h142.614z" fill="#003C3C"/><path d="M300.44 63.656h-31.495v6.304h31.495v-6.304z" fill="#5A7D7D"/><path d="M350.841 76.256h-31.495v6.304h31.495v-6.304z" fill="#28AAF0"/><path d="M317.243 88.864h-31.495v6.304h31.495v-6.304z" fill="#FFE65A"/><path d="M287.844 76.256h-18.899v6.304h18.899v-6.304z" fill="#00DC82"/><path d="M313.044 76.256h-18.898v6.304h18.898v-6.304zM342.444 88.864h-18.899v6.304h18.899v-6.304zM279.446 88.864h-10.501v6.304h10.501v-6.304z" fill="#5A7D7D"/><path d="M317.243 63.656h-10.501v6.304h10.501v-6.304z" fill="#00DC82"/><path d="M359.247 88.864h-10.501v6.304h10.501v-6.304zM300.44 12.96h-31.495v6.304h31.495V12.96z" fill="#5A7D7D"/><path d="M319.346 31.864h31.495v-1.032a74.67 74.67 0 00-4.486-5.232h-27.009v6.264z" fill="#28AAF0"/><path d="M300.44 50.768h-31.495v6.304h31.495v-6.304z" fill="#FF6446"/><path d="M317.243 38.16h-31.495v6.304h31.495V38.16z" fill="#FFE65A"/><path d="M287.844 25.56h-18.899v6.304h18.899V25.56z" fill="#00DC82"/><path d="M313.044 25.56h-18.898v6.304h18.898V25.56zM325.641 50.768h-18.899v6.304h18.899v-6.304z" fill="#5A7D7D"/><path d="M351.889 50.768H332.99v6.304h18.899v-6.304z" fill="#00DC82"/><path d="M342.444 38.16h-18.899v6.304h18.899V38.16zM279.446 38.16h-10.501v6.304h10.501V38.16z" fill="#5A7D7D"/><path d="M317.243 12.96h-10.501v6.304h10.501V12.96z" fill="#00DC82"/><path d="M348.746 44.464h10.493v-.624L357.023 40a67.266 67.266 0 00-1.103-1.84h-7.198l.024 6.304z" fill="#5A7D7D"/><path d="M249.527 236.648V400h38.261a79.961 79.961 0 0069.259-40l31.383-54.4v-68.952H249.527z" fill="#F5F9F9"/><path d="M313.356 259.016h-10.917a.8.8 0 00-.567.232l-5.599 5.6v-5.72a.768.768 0 00-.056-.28v-.056a.8.8 0 00-.144-.216h-.04l-.088-.08-5.87-4a.8.8 0 00-.448-.136h-11.756a.8.8 0 00-.448.136l-5.871 4-.088.08h-.039a.969.969 0 00-.144.216v.056a.768.768 0 00-.056.28V274.624a.948.948 0 00.056.136v.072c.019.03.044.057.072.08l.04.048.071.056 5.871 4a.29.29 0 00.088.048l.08.04a.812.812 0 00.28.056h11.732a.812.812 0 00.28-.056l.08-.04a.29.29 0 00.088-.048l5.87-4 .072-.056.04-.048a.342.342 0 00.072-.08v-.072a.948.948 0 00.056-.136v-.072a.324.324 0 000-.088v-7.352l6.494-6.496h10.589a.8.8 0 100-1.6h.2zm-38.708 13.6a.801.801 0 00-1.112-.208l-.736.496v-12.256l4.271 2.904v6.4h-.04a.799.799 0 00.04 1.344v5.528l-3.647-2.48 1.016-.696a.808.808 0 00.308-.488.806.806 0 00-.1-.568v.024zm3.998-1.392h2.952a.798.798 0 00.565-1.366.798.798 0 00-.565-.234h-2.952v-5.672h10.133v5.648h-2.951a.798.798 0 00-.565 1.366c.15.15.353.234.565.234h2.951v6.4H278.67l-.024-6.376zm11.733.152c.1-.06.187-.139.256-.232a.797.797 0 00.004-.89.802.802 0 00-.22-.222h-.04v-6.4l4.271-2.904v12.152l-.736-.496a.799.799 0 00-.904 1.32l1.016.696-3.647 2.48v-5.504zm-12.284-15.408h11.26l4.695 3.2-4.695 3.2h-11.236l-4.695-3.2 4.671-3.2zM324.705 261.304a.801.801 0 00.936 0l1.551-1.12 1.552 1.12a.801.801 0 00.935 0l1.552-1.12 1.544 1.12a.798.798 0 00.935 0l1.552-1.12 1.551 1.12a.804.804 0 00.936 0l1.552-1.12 1.551 1.12a.801.801 0 00.936 0l1.551-1.12 1.552 1.12a.801.801 0 00.936 0l1.551-1.12 1.552 1.12a.801.801 0 00.936 0l1.551-1.12 1.552 1.12a.8.8 0 00.935 0l1.6-1.12 1.559 1.12a.8.8 0 00.464.152.8.8 0 00.789-.928.802.802 0 00-.317-.52l-2.023-1.464a.801.801 0 00-.936 0l-1.544 1.128-1.599-1.128a.801.801 0 00-.936 0l-1.559 1.128-1.504-1.128a.801.801 0 00-.936 0l-1.551 1.12-1.544-1.12a.801.801 0 00-.935 0l-1.552 1.128-1.552-1.128a.798.798 0 00-.935 0l-1.552 1.128-1.551-1.128a.804.804 0 00-.936 0l-1.552 1.12-1.551-1.12a.801.801 0 00-.936 0l-1.551 1.12-1.544-1.12a.8.8 0 00-.944 0l-1.543 1.12-1.544-1.112a.802.802 0 00-.89-.037.796.796 0 00-.37.805.805.805 0 00.316.52l1.96 1.464zM324.705 266.12a.801.801 0 00.936 0l1.551-1.12 1.552 1.12a.801.801 0 00.935 0l1.552-1.12 1.544 1.12a.798.798 0 00.935 0l1.552-1.12 1.551 1.12a.804.804 0 00.936 0l1.552-1.12 1.551 1.12a.801.801 0 00.936 0l1.551-1.12 1.552 1.12a.801.801 0 00.936 0l1.551-1.12 1.552 1.12a.801.801 0 00.936 0l1.551-1.12 1.552 1.12a.798.798 0 10.935-1.296l-2.007-1.456a.801.801 0 00-.936 0l-1.559 1.12-1.552-1.12a.801.801 0 00-.936 0l-1.551 1.12-1.544-1.12a.801.801 0 00-.935 0l-1.552 1.12-1.551-1.12a.804.804 0 00-.936 0l-1.552 1.12-1.551-1.12a.804.804 0 00-.936 0l-1.552 1.12-1.551-1.12a.801.801 0 00-.936 0l-1.551 1.12-1.544-1.12a.8.8 0 00-.944 0l-1.543 1.12-1.544-1.12a.802.802 0 00-.944 1.296l2.008 1.456zM324.705 270.936a.801.801 0 00.936 0l1.551-1.12 1.552 1.12a.801.801 0 00.935 0l1.552-1.12 1.544 1.12a.798.798 0 00.935 0l1.552-1.128 1.551 1.128a.804.804 0 00.936 0l1.552-1.128 1.551 1.128a.801.801 0 00.936 0l1.551-1.12 1.552 1.12a.801.801 0 00.936 0l1.551-1.128 1.552 1.128a.845.845 0 00.464.152.795.795 0 00.478-.149.796.796 0 00.294-.906.8.8 0 00-.3-.401l-1.968-1.448a.801.801 0 00-.936 0l-1.551 1.12-1.544-1.12a.801.801 0 00-.935 0l-1.552 1.12-1.552-1.12a.798.798 0 00-.935 0l-1.552 1.12-1.551-1.12a.804.804 0 00-.936 0l-1.552 1.12-1.551-1.12a.801.801 0 00-.936 0l-1.551 1.12-1.544-1.12a.8.8 0 00-.944 0l-1.543 1.12-1.544-1.12a.8.8 0 00-1.263.772.802.802 0 00.319.524l1.96 1.456zM286.172 310.936h4.863a.798.798 0 00.565-1.366.798.798 0 00-.565-.234h-4.863a.798.798 0 00-.565 1.366c.15.15.353.234.565.234zM276.439 310.936h4.863a.798.798 0 00.565-1.366.798.798 0 00-.565-.234h-4.863a.797.797 0 00-.8.8.802.802 0 00.8.8z" fill="#9CABAC"/><path d="M313.356 292.344h-15.091a.8.8 0 00-.56.232l-6.718 6.72-6.614-8.608a.8.8 0 00-1.208 0l-14.564 18.96v.08a.763.763 0 00-.088.176 1.029 1.029 0 000 .136.198.198 0 00-.024.096c0 .034.008.067.024.096a.268.268 0 000 .08.132.132 0 000 .056c.022.061.049.12.08.176.022.04.049.078.08.112.044.047.093.09.144.128 0 0 .048.048.08.064l14.564 7.68h.096a.706.706 0 00.552 0h.096l14.563-7.68a.623.623 0 00.08-.064.703.703 0 00.224-.24c.032-.056.059-.115.08-.176a.106.106 0 000-.056.268.268 0 000-.08.199.199 0 000-.192.388.388 0 000-.136.69.69 0 00-.088-.176.268.268 0 000-.08l-6.966-9.072 6.63-6.632h14.756a.8.8 0 100-1.6h-.128zm-17.443 16.992a.8.8 0 00-.488 1.424l-10.876 5.736v-22.968l12.164 15.808h-.8zm-24.337 0h-.799l12.148-15.808v22.968l-10.885-5.736a.8.8 0 00.312-.624.803.803 0 00-.784-.8h.008zM355.944 291.744a.798.798 0 00-.928 0l-1.559 1.12-1.552-1.12a.801.801 0 00-.936 0l-1.559 1.12-1.552-1.12a.801.801 0 00-.936 0l-1.551 1.12-1.544-1.12a.801.801 0 00-.935 0l-1.552 1.12-1.551-1.12a.804.804 0 00-.936 0l-1.552 1.12-1.551-1.12a.804.804 0 00-.936 0l-1.552 1.12-1.551-1.12a.801.801 0 00-.936 0l-1.551 1.12-1.544-1.12a.8.8 0 00-.944 0l-1.543 1.12-1.552-1.12a.8.8 0 00-.935 1.296l2.015 1.456a.801.801 0 00.936 0l1.551-1.12 1.552 1.12a.801.801 0 00.935 0l1.552-1.12 1.544 1.12a.798.798 0 00.935 0l1.552-1.12 1.551 1.12a.804.804 0 00.936 0l1.552-1.12 1.551 1.12a.801.801 0 00.936 0l1.551-1.12 1.552 1.12a.801.801 0 00.936 0l1.551-1.12 1.552 1.12a.801.801 0 00.936 0l1.551-1.12 1.552 1.12a.801.801 0 00.935 0l1.6-1.12 1.559 1.12a.801.801 0 001.257-.773.803.803 0 00-.321-.523l-2.071-1.456zM324.705 299.32a.801.801 0 00.936 0l1.551-1.12 1.552 1.12a.801.801 0 00.935 0l1.552-1.12 1.544 1.12a.798.798 0 00.935 0l1.552-1.12 1.551 1.12a.804.804 0 00.936 0l1.552-1.12 1.551 1.12a.801.801 0 00.936 0l1.551-1.12 1.552 1.12a.801.801 0 00.936 0l1.551-1.12 1.552 1.12a.801.801 0 00.936 0l1.551-1.12 1.552 1.12a.797.797 0 001.256-.778.8.8 0 00-.321-.518l-2.007-1.464a.801.801 0 00-.936 0l-1.559 1.12-1.504-1.12a.801.801 0 00-.936 0l-1.551 1.12-1.544-1.12a.801.801 0 00-.935 0l-1.552 1.12-1.552-1.12a.798.798 0 00-.935 0l-1.552 1.12-1.551-1.12a.804.804 0 00-.936 0l-1.552 1.12-1.551-1.12a.801.801 0 00-.936 0l-1.551 1.12-1.544-1.12a.8.8 0 00-.944 0l-1.543 1.12-1.544-1.12a.804.804 0 00-.891-.031.792.792 0 00-.228.215.805.805 0 00.175 1.112l1.96 1.464zM324.705 304.136a.801.801 0 00.936 0l1.551-1.12 1.552 1.12a.801.801 0 00.935 0l1.552-1.12 1.544 1.12a.798.798 0 00.935 0l1.552-1.12 1.551 1.12a.804.804 0 00.936 0l1.552-1.12 1.551 1.12a.801.801 0 00.936 0l1.551-1.12 1.552 1.12a.797.797 0 001.227-.895.797.797 0 00-.291-.401l-2.016-1.464a.801.801 0 00-.935 0l-1.552 1.128-1.551-1.128a.804.804 0 00-.936 0l-1.552 1.128-1.551-1.128a.804.804 0 00-.936 0l-1.552 1.12-1.551-1.12a.801.801 0 00-.936 0l-1.551 1.12-1.544-1.12a.8.8 0 00-.944 0l-1.543 1.12-1.544-1.112a.8.8 0 00-1.155 1.066c.054.09.126.168.212.23l2.015 1.456zM286.636 351.912a.798.798 0 00-.968.576l-1.055 4.056a.804.804 0 00.294.841.8.8 0 00.282.135.828.828 0 00.199 0 .802.802 0 00.8-.6l1.048-4.056a.802.802 0 00-.6-.952zM286.164 336.272a.8.8 0 00-1.466-.207.8.8 0 00-.085.607l1.055 4.056a.805.805 0 00.8.6.56.56 0 00.2 0 .802.802 0 00.576-.968l-1.08-4.088z" fill="#9CABAC"/><path d="M313.356 330.632H298.96a.8.8 0 00-.567.232l-6.399 6.4-7.725-7.728h-.04a.309.309 0 00-.08-.064l-.112-.064h-.128a.435.435 0 00-.144 0h-.04a.435.435 0 00-.144 0h-.168l-.112.064a.309.309 0 00-.08.064h-.04l-16.507 16.512a.8.8 0 000 1.136l16.507 16.512h.04c.05.046.106.084.168.112a.24.24 0 00.08.04h.48l.088-.04.104-.056h.04l16.627-16.552a.8.8 0 00.176-.872.674.674 0 00-.176-.264l-7.646-7.664 6.15-6.152h14.044a.8.8 0 100-1.6v-.016zm-44.195 15.2l13.068-13.072-3.383 13.072h-9.685zm9.685 1.6l3.383 13.072-13.068-13.072h9.685zM284.541 360a.808.808 0 00-.728.192l-3.319-12.8h6.486l-.264 1.024a.816.816 0 00.085.608.817.817 0 00.491.368.836.836 0 00.2 0 .799.799 0 00.8-.6l.375-1.424h9.646l-13.205 13.208a.805.805 0 00-.567-.576zm4.094-14.216l-.375-1.432a.803.803 0 00-.957-.513.797.797 0 00-.587.913l.264 1.032h-6.486l3.319-12.8a.795.795 0 00.528.208h.2a.792.792 0 00.567-.592l6.295 6.296a.451.451 0 01.048.072l.072.04 6.79 6.8-9.678-.024zM324.705 332.848a.801.801 0 00.936 0l1.551-1.12 1.552 1.12a.801.801 0 00.935 0l1.552-1.12 1.544 1.12a.798.798 0 00.935 0l1.552-1.12 1.551 1.12a.804.804 0 00.936 0l1.552-1.12 1.551 1.12a.801.801 0 00.936 0l1.551-1.12 1.552 1.12a.801.801 0 00.936 0l1.551-1.12 1.552 1.12a.797.797 0 00.464.152.797.797 0 00.647-.336.805.805 0 00-.175-1.112l-1.968-1.464a.801.801 0 00-.936 0l-1.551 1.12-1.544-1.12a.801.801 0 00-.935 0l-1.592 1.112-1.552-1.128a.798.798 0 00-.935 0l-1.552 1.128-1.551-1.128a.804.804 0 00-.936 0l-1.552 1.128-1.551-1.12a.801.801 0 00-.936 0l-1.551 1.12-1.544-1.12a.8.8 0 00-.944 0l-1.543 1.12-1.544-1.112a.802.802 0 00-.89-.037.796.796 0 00-.37.805.805.805 0 00.316.52l2 1.472zM355.952 334.912a.801.801 0 00-.936 0l-1.52 1.088-1.551-1.12a.801.801 0 00-.936 0L349.45 336l-1.552-1.12a.801.801 0 00-.936 0l-1.551 1.12-1.544-1.12a.801.801 0 00-.935 0L341.34 336l-1.552-1.12a.798.798 0 00-.935 0l-1.552 1.12-1.551-1.12a.804.804 0 00-.936 0l-1.552 1.12-1.551-1.12a.801.801 0 00-.936 0l-1.551 1.12-1.544-1.12a.8.8 0 00-.944 0l-1.543 1.12-1.544-1.12a.802.802 0 10-.943 1.296l2.015 1.456a.801.801 0 00.936 0l1.551-1.12 1.552 1.12a.801.801 0 00.935 0l1.552-1.12 1.544 1.12a.798.798 0 00.935 0l1.552-1.12 1.551 1.12a.804.804 0 00.936 0l1.552-1.12 1.551 1.12a.801.801 0 00.936 0l1.551-1.12 1.552 1.12a.801.801 0 00.936 0l1.551-1.12 1.552 1.12a.801.801 0 00.936 0l1.551-1.12 1.552 1.12a.8.8 0 00.935 0l1.6-1.12 1.559 1.12a.801.801 0 001.257-.773.81.81 0 00-.321-.523l-2.063-1.424zM324.705 342.48a.801.801 0 00.936 0l1.551-1.12 1.552 1.12a.801.801 0 00.935 0l1.552-1.12 1.544 1.12a.798.798 0 00.935 0l1.552-1.128 1.551 1.128a.804.804 0 00.936 0l1.552-1.128 1.551 1.128a.801.801 0 00.936 0l1.551-1.12 1.552 1.12a.801.801 0 00.464.144.804.804 0 00.648-.328.783.783 0 00.131-.284.786.786 0 00-.095-.606.802.802 0 00-.212-.23l-2.016-1.456a.801.801 0 00-.935 0l-1.552 1.12-1.552-1.12a.798.798 0 00-.935 0l-1.552 1.12-1.551-1.12a.804.804 0 00-.936 0l-1.552 1.12-1.551-1.12a.801.801 0 00-.936 0l-1.551 1.12-1.544-1.12a.8.8 0 00-.944 0l-1.543 1.12-1.544-1.12a.8.8 0 00-1.155 1.066c.054.09.126.168.212.23l2.015 1.464zM274.112 399.144a.81.81 0 00.568-.232l1.783-1.784a.801.801 0 10-1.136-1.128l-1.807 1.776a.802.802 0 00.56 1.368h.032zM277.671 395.584a.8.8 0 00.567-.24l1.464-1.456h2.071a.8.8 0 100-1.6h-1.599v-1.6a.8.8 0 10-1.6 0v2.064l-1.463 1.464a.801.801 0 00.56 1.368z" fill="#9CABAC"/><path d="M297.577 393.392a.792.792 0 00.064-.304v-6.4l6.494-6.496h9.221a.8.8 0 100-1.6h-9.549a.806.806 0 00-.568.232l-5.598 5.6v-8.8a.802.802 0 00-.496-.744.811.811 0 00-.304-.056h-17.467a.791.791 0 00-.56.24l-8.733 8.736a.791.791 0 00-.176.256.81.81 0 00-.056.312V400h3.271a.804.804 0 00-.539-.625.798.798 0 00-.805.185l-.327.328v-14.736h7.133v1.304a.802.802 0 001.366.566.8.8 0 00.234-.566v-1.304h7.134v7.136h-1.32a.798.798 0 00-.565 1.366c.15.15.353.234.565.234h1.312V400h.456c1.127 0 2.247 0 3.375-.08l6.262-6.272a.807.807 0 00.176-.256zm-17.403-9.84v-1.32a.8.8 0 10-1.6 0v1.32h-6.006l6.006-6.008v.464a.802.802 0 001.366.566.8.8 0 00.234-.566v-1.6h14.732l-7.134 7.136-7.598.008zm15.867 8.736h-1.599a.8.8 0 100 1.6h.464l-5.999 6v-6h1.312a.8.8 0 100-1.6h-1.312v-7.608l7.134-7.136v14.744zM342.892 377.52l-1.552 1.12-1.552-1.12a.798.798 0 00-.935 0l-1.552 1.12-1.551-1.12a.804.804 0 00-.936 0l-1.552 1.12-1.551-1.12a.801.801 0 00-.936 0l-1.551 1.12-1.544-1.12a.8.8 0 00-.944 0l-1.543 1.12-1.544-1.12a.802.802 0 00-.89-.036.793.793 0 00-.374.809.802.802 0 00.32.523l2.016 1.464a.801.801 0 00.936 0l1.551-1.12 1.552 1.12a.801.801 0 00.935 0l1.552-1.12 1.544 1.12a.798.798 0 00.935 0l1.552-1.12 1.551 1.12a.804.804 0 00.936 0l1.552-1.12 1.263.912a84.76 84.76 0 002.887-2.68.8.8 0 00-.575.128zM334.814 382.344l-1.552 1.12-1.551-1.12a.801.801 0 00-.936 0l-1.551 1.12-1.544-1.12a.8.8 0 00-.944 0l-1.543 1.12-1.544-1.12a.802.802 0 00-.89-.036.796.796 0 00-.37.804.805.805 0 00.316.52l2.016 1.464a.801.801 0 00.936 0l1.551-1.12 1.552 1.12a.801.801 0 00.935 0l1.552-1.12 1.544 1.12a.798.798 0 00.935 0l1.552-1.12.248.176c.448-.328.895-.664 1.335-1.008l-1.111-.8a.804.804 0 00-.936 0zM330.775 387.2l-1.551 1.12-1.544-1.12a.8.8 0 00-.944 0l-1.543 1.12-1.544-1.12a.802.802 0 10-.943 1.296l2.015 1.456a.801.801 0 00.936 0l1.551-1.12.616.448a79.659 79.659 0 003.575-2.208.79.79 0 00-.624.128z" fill="#9CABAC"/><path d="M380.481 245.304H257.429a.4.4 0 00-.4.4V400h.799v-29.872h92.254c.207-.264.423-.528.631-.8h-92.885v-44.632h119.574l.463-.8H257.828v-39.824h122.253v36l.799-1.384v-72.96a.378.378 0 00-.023-.16.384.384 0 00-.218-.231.393.393 0 00-.158-.033zm-.4 37.968H257.828v-37.168h122.253v37.168z" fill="#C4CDCD"/><path d="M109.76 165.136c0-6.976 13.924-14.664 13.924-21.6 0-5.44-8.798 5.84-8.798.456 0-6.312 13.292-6.584 13.292-14.28 0-6.928-9.229 4.312-9.229-1.416 0-5.872 14.988-8.376 14.988-18.4 0-8.2-13.692 6.488-13.692-1.168 0-4.528 7.422-7.704 7.422-13.464 0-6.232-12.037 4.8-12.037-1.648 0-3 2.399-4.584 2.399-8.592 0-3.272-4.798-4.664-8.301-4.664l.032 84.776z" fill="#1B7064"/><path d="M109.76 80.352c-3.503 0-8.302 1.104-8.302 4.664 0 4.8 2.831 6.184 2.831 9.512 0 6.4-12.476-6.784-12.476.728 0 5.76 7.558 9.36 7.558 13.88 0 7.664-13.828-7.448-13.828.752 0 9.992 15.195 12.144 15.195 18.016 0 5.728-9.46-5.16-9.46 1.768 0 7.696 13.067 7.84 13.067 14.144 0 5.384-8.533-5.76-8.533-.32 0 5.2 7.758 10.808 11.693 16.216l-.688 24.536a4.996 4.996 0 002.503 4.488c.21.122.449.185.692.184a1.366 1.366 0 001.193-.698c.12-.212.181-.451.178-.694L109.76 80.352z" fill="#003C3C"/><path d="M67.716 126.192l-1.96.864a13.004 13.004 0 00.049-9.288 37.829 37.829 0 00-4.799-8.8l-1.775 1.768a10.594 10.594 0 00-3.032-7.44 58.461 58.461 0 00-2.735-2.608L51.77 102.4a6.537 6.537 0 00-2.583-5.216c-.512-.384-1.032-.8-1.6-1.136L46.1 98.624l1.639 61.264c14.108-9.216 20.97-21.376 19.978-33.696z" fill="#1B7064"/><path d="M43.891 159.616l-.456 13.656a2.351 2.351 0 104.703 0l-.36-13.4-1.64-61.264L25.041 135.2c2.103 8.968 8.47 17.504 18.85 24.416z" fill="#003C3C"/><path d="M111.967 42.168l.688-.616a123.965 123.965 0 003.143-2.912 86.3 86.3 0 005.766-6.088 65.416 65.416 0 005.159-6.784c.8-1.216 1.551-2.48 2.255-3.816a30.86 30.86 0 001.008-2.064c.338-.73.635-1.477.888-2.24-.791.177-1.566.415-2.32.712-.735.28-1.447.6-2.143.936a31.705 31.705 0 00-3.951 2.304c-.488.344-.968.704-1.431 1.064a66.65 66.65 0 004.67-6.616 48.595 48.595 0 002.128-3.888c.327-.68.647-1.368.943-2.096.308-.74.575-1.495.8-2.264-.785.206-1.552.474-2.295.8a26.95 26.95 0 00-2.112 1.008 30.742 30.742 0 00-3.839 2.456l-.511.392a65.431 65.431 0 004.59-7.128c.36-.656.704-1.328 1.04-2.016a79.952 79.952 0 00-17.323 7.472c.568 5.192 1.104 10.4 1.6 15.592.495 5.192.855 10.52 1.247 15.792z" fill="#1B7064"/><path d="M96.772 32.552a86.51 86.51 0 005.774 6.088c1.016.976 2.047 1.944 3.135 2.912l1.488 1.336c.184 6.248.272 12.496.216 18.728a2.73 2.73 0 001.683 2.52 2.73 2.73 0 003.771-2.52c-.176-6.488-.512-12.952-.944-19.408a703.814 703.814 0 00-1.231-15.784 598.1 598.1 0 00-1.6-15.592 79.991 79.991 0 00-17.89 14.176c.16.256.311.512.471.76a65.458 65.458 0 005.127 6.784z" fill="#003C3C"/><path d="M225.758 95.616h-67.652v114.52h67.652V95.616z" fill="#B4B48C"/><path d="M158.106 210.136h67.652a7.807 7.807 0 01-7.806 7.808h-52.041a7.805 7.805 0 01-7.805-7.808zM165.911 87.808h52.041a7.806 7.806 0 017.806 7.808h-67.652a7.808 7.808 0 017.805-7.808z" fill="#5A7D7D"/><path d="M225.758 102.456a1.51 1.51 0 011.511 1.512v8.408a1.512 1.512 0 01-1.511 1.512v-11.432zM158.106 102.456v11.432a1.509 1.509 0 01-1.512-1.512V104a1.516 1.516 0 01.926-1.426c.185-.078.384-.118.586-.118zM225.758 116.952a1.51 1.51 0 011.511 1.512v8.408a1.512 1.512 0 01-1.511 1.512v-11.432z" fill="#336363"/><path d="M170.246 195.624h-3.399a1.916 1.916 0 00-1.663.96l-1.704 2.944a1.916 1.916 0 000 1.92l1.704 2.952a1.916 1.916 0 001.663.96h3.399a1.937 1.937 0 001.664-.96l1.703-2.952a1.917 1.917 0 000-1.92l-1.663-2.944a1.932 1.932 0 00-1.704-.96zM208.291 102.888h-3.399a1.937 1.937 0 00-1.664.96l-1.687 2.952a1.916 1.916 0 000 1.92l1.703 2.944a1.927 1.927 0 001.664.96h3.399a1.937 1.937 0 001.664-.96l1.703-2.944a1.916 1.916 0 000-1.92l-1.703-2.952a1.934 1.934 0 00-1.68-.96zM178.044 191.128h-2.287a1.285 1.285 0 00-1.112.648l-1.144 1.976a1.32 1.32 0 000 1.288l1.144 1.976a1.302 1.302 0 001.112.64h2.287a1.307 1.307 0 001.112-.64l1.143-1.976a1.322 1.322 0 000-1.288l-1.151-1.976a1.282 1.282 0 00-1.104-.648zM216.089 110.624h-2.28a1.28 1.28 0 00-1.119.64l-1.136 1.976a1.28 1.28 0 000 1.288l1.136 1.976a1.288 1.288 0 001.119.648h2.28a1.274 1.274 0 001.111-.648l1.144-1.976a1.278 1.278 0 000-1.288l-1.144-1.976a1.267 1.267 0 00-1.111-.64zM170.566 189.224h-1.655a.94.94 0 00-.8.472l-.8 1.432a.924.924 0 000 .928l.8 1.432a.929.929 0 00.8.472h1.655a.926.926 0 00.8-.472l.8-1.432a.923.923 0 000-.928l-.8-1.432a.944.944 0 00-.8-.472z" fill="#00DC82"/><path d="M167.823 111.792a5.8 5.8 0 005.798-5.8 5.8 5.8 0 00-5.798-5.8 5.8 5.8 0 00-5.798 5.8 5.8 5.8 0 005.798 5.8z" fill="#E6F0F0"/><path d="M170.726 100.968l-4.767 3.952 1.864 1.072 1.863 1.08 1.04-6.104z" fill="#FF6446"/><path d="M164.92 111.024l4.766-3.952-1.863-1.08-1.864-1.072-1.039 6.104z" fill="#336363"/><path opacity=".1" d="M158.106 95.616v45.224l51.249 69.296h16.403v-62.928l-45.515-51.592h-22.137z" fill="#fff"/><path d="M187.529 125.304l5.598 9.736a8.648 8.648 0 007.486 4.328h25.121v-2.64h-25.097a6.003 6.003 0 01-5.206-3l-5.599-9.736a6.035 6.035 0 010-6.016l12.909-22.36h-3.04l-12.148 21.048a8.68 8.68 0 00-.024 8.64z" fill="#D2D2AA"/><path d="M189.808 124l5.599 9.736a6.01 6.01 0 005.206 3h25.121v-41.12h-23.017l-12.909 22.4a6.038 6.038 0 000 5.984z" fill="#F5F9F9"/><path d="M185.546 188.752l7.198-12.488a8.659 8.659 0 000-8.648l-7.198-12.496a8.688 8.688 0 00-7.486-4.32h-14.396a8.708 8.708 0 00-5.598 2.048v4.208l.36-.616a6.008 6.008 0 015.206-3.008h14.396a6.013 6.013 0 015.198 3.008l7.198 12.496a6.014 6.014 0 010 6.008l-7.198 12.496a6.023 6.023 0 000 6.008l8.95 15.496.688 1.192h3.079l-10.397-18.008a3.391 3.391 0 010-3.376z" fill="#D2D2AA"/><path d="M183.29 193.448a6.023 6.023 0 010-6.008l7.198-12.496a6.014 6.014 0 000-6.008l-7.198-12.496a6.013 6.013 0 00-5.198-3.008h-14.396a6.011 6.011 0 00-5.206 3.008l-.36.616v53.08h34.821l-.687-1.192-8.974-15.496z" fill="#F5F9F9"/><path d="M219.44 152.88a.53.53 0 00-.528.528.527.527 0 001.015.202.521.521 0 00-.114-.575.537.537 0 00-.373-.155zM223.359 152.88a.53.53 0 00-.374.901.533.533 0 00.576.115.528.528 0 00-.202-1.016zM213.537 156.264a.532.532 0 00-.495.331.539.539 0 00.391.731.54.54 0 00.55-.228.535.535 0 00-.446-.834zM217.488 156.264a.535.535 0 00-.389.912.53.53 0 00.584.12.531.531 0 00.333-.496.534.534 0 00-.528-.536zM221.399 156.264a.532.532 0 00-.534.636.535.535 0 001.062-.1.533.533 0 00-.324-.495.53.53 0 00-.204-.041zM225.31 156.264a.537.537 0 000 1.064.523.523 0 00.448-.264v-.536a.54.54 0 00-.448-.264zM207.707 159.656a.539.539 0 00-.501.327.538.538 0 00.391.735.54.54 0 00.638-.534.533.533 0 00-.528-.528zM211.618 159.656a.536.536 0 10-.016 1.073.536.536 0 00.016-1.073zM215.529 159.656a.536.536 0 10.488.326.537.537 0 00-.488-.326zM219.44 159.656a.54.54 0 00-.496.333.541.541 0 00.12.585.539.539 0 00.912-.39.535.535 0 00-.536-.528zM223.359 159.656a.534.534 0 00-.534.639.533.533 0 00.423.423.536.536 0 10.111-1.062zM205.748 163.048a.53.53 0 00-.518.631.526.526 0 00.415.415.531.531 0 00.542-.225.529.529 0 00.051-.496.519.519 0 00-.49-.325zM209.659 163.048a.524.524 0 00-.509.636.525.525 0 00.72.379.528.528 0 00-.211-1.015zM213.537 163.048a.524.524 0 00-.481.331.53.53 0 00.389.715.527.527 0 00.297-1.008.533.533 0 00-.205-.038zM217.488 163.048a.529.529 0 10.001 1.057.529.529 0 00-.001-1.057zM221.399 163.048a.529.529 0 10.49.325.516.516 0 00-.49-.325zM225.31 163.048a.533.533 0 00-.459.259.528.528 0 00.907.541v-.544a.524.524 0 00-.448-.256zM203.788 166.4a.532.532 0 00-.495.331.539.539 0 00.391.731.536.536 0 10.104-1.062zM207.707 166.4a.532.532 0 00-.534.636.535.535 0 10.534-.636zM211.618 166.4a.532.532 0 00-.501.325.543.543 0 00-.034.311.544.544 0 00.419.425.541.541 0 00.553-.226.534.534 0 00-.437-.835zM215.529 166.4a.532.532 0 00-.501.325.543.543 0 00-.034.311.544.544 0 00.419.425.541.541 0 00.553-.226.542.542 0 00-.233-.794.53.53 0 00-.204-.041zM219.44 166.4a.535.535 0 10-.002 1.07.535.535 0 00.002-1.07zM223.359 166.4a.53.53 0 00-.501.325.535.535 0 00.696.707.542.542 0 00.242-.197.54.54 0 00-.064-.675.53.53 0 00-.373-.16zM201.837 169.824a.536.536 0 10-.016 1.073.536.536 0 00.016-1.073zM205.748 169.824a.534.534 0 00-.534.639.536.536 0 001.062-.111.528.528 0 00-.528-.528zM209.659 169.824a.537.537 0 100 1.074.537.537 0 000-1.074zM213.537 169.824a.536.536 0 10.002 1.072.536.536 0 00-.002-1.072zM217.488 169.824a.533.533 0 00-.501.327.538.538 0 00.391.735.54.54 0 00.638-.534.535.535 0 00-.528-.528zM199.877 173.216a.529.529 0 10.001 1.057.529.529 0 00-.001-1.057zM203.788 173.216a.532.532 0 00-.482.331.53.53 0 00.694.684.533.533 0 00.236-.194.536.536 0 00.088-.293.533.533 0 00-.536-.528zM207.707 173.216a.528.528 0 10.001 1.055.528.528 0 00-.001-1.055zM211.618 173.216a.528.528 0 10.001 1.055.528.528 0 00-.001-1.055zM215.529 173.216a.524.524 0 00-.488.326.53.53 0 00.385.72.531.531 0 00.542-.225.526.526 0 00-.439-.821zM201.837 176.6a.533.533 0 00-.536.536.535.535 0 10.536-.536zM205.748 176.6a.527.527 0 00-.528.536.539.539 0 00.155.373.537.537 0 00.373.155.539.539 0 00.373-.155.518.518 0 00.155-.373.533.533 0 00-.324-.495.53.53 0 00-.204-.041zM209.659 176.6a.533.533 0 00-.528.536.537.537 0 001.063 0 .533.533 0 00-.535-.536zM213.537 176.6a.534.534 0 00-.527.536.535.535 0 001.063 0 .533.533 0 00-.536-.536zM199.877 180a.537.537 0 10.49.332.518.518 0 00-.286-.291.527.527 0 00-.204-.041zM203.788 180a.532.532 0 00-.495.331.539.539 0 00.391.731.536.536 0 10.104-1.062zM207.707 180a.54.54 0 00-.501.325.543.543 0 00.111.587.536.536 0 10.39-.912zM211.618 180a.54.54 0 00-.501.325.543.543 0 00-.034.311.544.544 0 00.419.425.541.541 0 00.553-.226.534.534 0 00-.437-.835zM201.837 183.384a.536.536 0 10-.016 1.073.536.536 0 00.016-1.073zM205.748 183.384a.534.534 0 00-.534.639.54.54 0 00.423.423c.105.02.213.009.312-.032a.546.546 0 00.24-.201.544.544 0 00-.068-.674.528.528 0 00-.373-.155zM209.659 183.384a.537.537 0 100 1.074.537.537 0 000-1.074zM213.537 183.384a.536.536 0 10.002 1.072.536.536 0 00-.002-1.072zM199.877 186.776a.529.529 0 10.49.325.516.516 0 00-.49-.325zM203.788 186.776a.532.532 0 00-.482.331.53.53 0 00.694.684.528.528 0 00-.212-1.015zM207.707 186.776a.529.529 0 10.001 1.057.529.529 0 00-.001-1.057zM211.618 186.776a.529.529 0 10.001 1.057.529.529 0 00-.001-1.057zM215.529 186.776a.524.524 0 00-.488.326.53.53 0 00.385.72.531.531 0 00.542-.225.529.529 0 00.051-.496.516.516 0 00-.49-.325zM201.837 190.16a.532.532 0 00-.501.325.543.543 0 00-.034.311.544.544 0 00.419.425.541.541 0 00.553-.226.538.538 0 00-.437-.835zM205.748 190.16a.53.53 0 00-.501.325.535.535 0 00.696.707.542.542 0 00.295-.701.53.53 0 00-.49-.331zM209.659 190.16a.535.535 0 10-.002 1.07.535.535 0 00.002-1.07zM213.537 190.16a.532.532 0 00-.495.331.539.539 0 00.391.731.54.54 0 00.55-.228.535.535 0 00-.446-.834zM217.488 190.16a.535.535 0 00-.389.912.53.53 0 00.584.12.531.531 0 00.333-.496.534.534 0 00-.528-.536zM203.788 193.552a.536.536 0 10.002 1.072.536.536 0 00-.002-1.072zM207.707 193.552a.539.539 0 00-.501.327.538.538 0 00.391.735.535.535 0 00.481-.905.532.532 0 00-.371-.157zM211.618 193.552a.536.536 0 10-.016 1.073.536.536 0 00.016-1.073zM215.529 193.552a.536.536 0 10.488.326.537.537 0 00-.488-.326zM219.44 193.552a.54.54 0 00-.496.333.541.541 0 00.12.585.539.539 0 00.912-.39.535.535 0 00-.536-.528zM223.359 193.552a.534.534 0 00-.534.639.532.532 0 00.734.391.536.536 0 00-.2-1.03zM205.748 196.944a.53.53 0 00-.518.631c.02.102.071.197.145.27a.531.531 0 00.812-.08.526.526 0 00.089-.293.52.52 0 00-.528-.528zM209.659 196.944a.53.53 0 00-.092 1.046.524.524 0 00.627-.518.53.53 0 00-.157-.376.53.53 0 00-.378-.152zM213.537 196.944a.532.532 0 00-.481.331.53.53 0 00.389.715.527.527 0 00.297-1.008.533.533 0 00-.205-.038zM217.488 196.944a.529.529 0 10.001 1.057.529.529 0 00-.001-1.057zM221.399 196.944a.529.529 0 10.49.325.526.526 0 00-.287-.287.52.52 0 00-.203-.038zM225.31 196.944a.533.533 0 00-.459.259.528.528 0 00.907.541v-.544a.524.524 0 00-.448-.256zM207.707 200.336a.529.529 0 10.001 1.057.529.529 0 00-.001-1.057zM211.618 200.336a.529.529 0 10.001 1.057.529.529 0 00-.001-1.057zM215.529 200.336a.524.524 0 00-.488.326.53.53 0 00.385.72.531.531 0 00.542-.225.526.526 0 00.089-.293.52.52 0 00-.528-.528zM219.44 200.336a.53.53 0 10.212 1.015.53.53 0 00.166-.863.53.53 0 00-.378-.152zM223.359 200.336a.53.53 0 00-.374.901.533.533 0 00.576.115.528.528 0 00-.202-1.016zM213.537 203.72a.532.532 0 00-.495.331.539.539 0 00.391.731.54.54 0 00.55-.228.535.535 0 00-.446-.834zM217.488 203.72a.535.535 0 00-.389.912.53.53 0 00.584.12.531.531 0 00.333-.496.534.534 0 00-.528-.536zM221.399 203.72a.54.54 0 00-.501.325.543.543 0 00.111.587.536.536 0 00.88-.58.535.535 0 00-.286-.291.53.53 0 00-.204-.041zM225.31 203.72a.541.541 0 00-.476.257.542.542 0 00-.01.541.537.537 0 00.934.002V204a.541.541 0 00-.448-.28zM219.44 207.112a.54.54 0 00-.496.333.541.541 0 00.12.585.537.537 0 10.376-.918zM223.359 207.112a.534.534 0 00-.534.639.532.532 0 00.734.391.536.536 0 00-.2-1.03z" fill="#648282"/><path d="M172.797 123.464l20.37 35.288a6.842 6.842 0 005.911 3.408h17.595a2.884 2.884 0 012.487 1.44l6.63 11.48v-7.88l-3.199-5.552a6.84 6.84 0 00-5.91-3.416h-17.595a2.876 2.876 0 01-2.488-1.432l-20.37-35.288a6.839 6.839 0 00-5.902-3.416h-12.22v3.96h12.244a2.876 2.876 0 012.447 1.408z" fill="#FFE65A"/><path d="M214.681 383.864h-42.443V400h62.093c-2.839-9.6-10.732-16.136-19.65-16.136z" fill="#336363"/><path d="M108.808 240.616h-60.15s-7.998 10.144-17.731 34.4L79.977 360a79.961 79.961 0 0069.26 40h65.9c-12.924-117.384-46.17-159.384-46.17-159.384h-60.159z" fill="#5A7D7D"/><path d="M108.808 208.928a45.698 45.698 0 00-25.394 7.706 45.73 45.73 0 00-6.923 70.346 45.705 45.705 0 0049.814 9.905 45.71 45.71 0 0020.511-16.842 45.738 45.738 0 00-5.689-57.729 45.698 45.698 0 00-32.319-13.386zm0 80.688a34.963 34.963 0 01-32.298-21.597 34.983 34.983 0 017.584-38.114 34.968 34.968 0 0117.904-9.57 34.968 34.968 0 116.81 69.265v.016z" fill="#336363"/><path d="M211.834 352H75.346l4.63 8a79.605 79.605 0 0013.725 17.552c4.905.101 9.941.155 15.107.16 51.513 0 90.174-4.664 103.026-25.712z" fill="#003C3C"/><path d="M221.679 332.704v-64.112a32.46 32.46 0 00-9.503-22.95 32.44 32.44 0 00-22.943-9.506H28.392a32.32 32.32 0 00-17.1 4.864l68.685 119a81.607 81.607 0 003.263 5.168h105.993a32.448 32.448 0 0032.446-32.464z" fill="#336363"/><path d="M174.101 328.272c18.953 0 34.318-15.369 34.318-34.328 0-18.959-15.365-34.328-34.318-34.328-18.953 0-34.318 15.369-34.318 34.328 0 18.959 15.365 34.328 34.318 34.328z" fill="#003C3C"/><path d="M169.662 323.84c18.954 0 34.318-15.369 34.318-34.328 0-18.959-15.364-34.328-34.318-34.328-18.953 0-34.318 15.369-34.318 34.328 0 18.959 15.365 34.328 34.318 34.328z" fill="#00D180"/><path d="M142.918 289.512h-3.199a30.344 30.344 0 0130.303-30.312v3.2a27.122 27.122 0 00-19.158 7.948 27.14 27.14 0 00-7.946 19.164z" fill="#8FE7C3"/><path d="M128.914 385.696h-3.871v-43.2a3.317 3.317 0 00-3.319-3.296H95.9a3.324 3.324 0 00-2.35.975 3.318 3.318 0 00-.97 2.353v33.952a79.974 79.974 0 0038.51 21.456V387.88a2.176 2.176 0 00-2.176-2.184z" fill="#003C3C"/><path d="M189.936 44.264a12.23 12.23 0 0012.213-12.216V0h-6.398v32.048a5.827 5.827 0 01-5.819 5.608 5.823 5.823 0 01-5.818-5.608V0h-6.398v32.048a12.239 12.239 0 0012.22 12.216z" fill="#B4B48C"/><path d="M402.858 163.656v116.936L426.275 240a80.013 80.013 0 000-80l-.6-1.048h-18.122a4.702 4.702 0 00-3.323 1.378 4.712 4.712 0 00-1.372 3.326z" fill="#FF6446"/><path d="M415.342 158.952V258.96l6.239-10.816v-89.192h-6.239z" fill="#BF4B35"/><path fill-rule="evenodd" clip-rule="evenodd" d="M169.686 305.416a2.422 2.422 0 01-.958-1.202l-9.055 5.12-.35-32.027 8.945 5.51-.041-3.061-7.806-4.819c-.222-.141-1.482-.851-2.603-.217-.507.286-1.105.923-1.091 2.327l.343 32.423c.005.279.078 1.721 1.199 2.401.512.308 1.359.54 2.556-.137l11.417-6.455c-1.189.673-2.04.453-2.556.137zM194.616 288.241l-22.706-14.016c-.237-.148-1.495-.865-2.621-.229-.507.287-1.107.919-1.093 2.323l.031 3.437 2.611 1.608-.064-4.77 22.419 13.788-4.214 2.382c.242.301.404.659.471 1.037.016.083.025.168.026.252l.006.094c-.003 1.316-1.198 2.062-1.438 2.198l6.593-3.727c.243-.138 1.434-.882 1.437-2.198-.004-.595-.255-1.458-1.458-2.179z" fill="#003C3C"/><path fill-rule="evenodd" clip-rule="evenodd" d="M189.476 294.053l.006.094c-.003 1.316-1.198 2.063-1.45 2.205l-15.802 8.934c-1.197.677-2.045.445-2.556.137a2.426 2.426 0 01-.946-1.209 3.62 3.62 0 01-.245-1.197l-.223-20.195-.033-3.066 2.619 1.604 17.194 10.599c.357.21.675.483.939.805.242.301.404.659.471 1.037.016.083.025.168.026.252zm-2.891.065l-15.715-9.688.204 18.458 15.511-8.77z" fill="#003C3C"/></svg>
