<svg viewBox="0 0 438 400" fill="none" xmlns="http://www.w3.org/2000/svg"><path d="M357.466 40a80 80 0 00-69.28-40H149.618a80 80 0 00-69.28 40l-69.28 120a80 80 0 000 80l69.28 120a80.001 80.001 0 0069.28 40h138.568a80.002 80.002 0 0069.28-40l69.272-120a80.003 80.003 0 000-80L357.466 40z" fill="#33E39B"/><path fill="#BBEDE1" d="M196.634 24.624h44.536v368.832h-44.536z"/><path d="M196.634 93.864c3.448 0 6.352-4.976 10.064-4.976 3.712 0 5.512 7.2 9.6 7.2s5.168 5.712 7 5.712h17.84v34.4h-44.504V93.864z" fill="#5DBFA5"/><path d="M239.922 92.216c-.392-1.08-1.024-1.864-2.016-1.864-.72 0-1.296.576-1.752 1.416l-1.416-6.168c-.8-3.336-2.048-3.352-2.856 0l-.904 3.688 1.304.56-1.6.608-1.08 4.432-.416-1.952c-.72-3.416-2.032-3.448-2.912-.064l-1.12 4.32a3.018 3.018 0 00-1.168-.232c-2.976 0-4.32 4.32-4.84 6.76-3.656 4.184-7.2 10.248-10.904 10.248-5.712 0-7.24-10.28-11.648-10.28v276.088h44.544V92.168c-.408 0-.8.016-1.216.048z" fill="#1B7064"/><path d="M196.634 197.304v50.632h16.888V210.28c-6.192 0-11.48-12.976-16.888-12.976z" fill="#003C3C"/><path d="M218.898 24.624h22.272L247.818 0h-57.832l6.648 24.624h22.264zM301.602 222.16a2.4 2.4 0 002.4-2.4V1.6A79.923 79.923 0 00288.186 0h-2.856v222.16h16.272z" fill="#00D280"/><path d="M254.594 56.72v145.36l29.344 19.68a2.4 2.4 0 003.736-1.992V0H273.65l-18.704 54.608a7.887 7.887 0 00-.352 2.112zM162.874 94.616l-59.808-79.672A79.877 79.877 0 0080.338 40l-69.28 120a80 80 0 000 80l60.608 104.984 91.2-105.6.008-144.768z" fill="#99F1CD"/><path d="M11.058 160a80 80 0 000 80l11.56 20V140l-11.56 20zM370.25 232.8a2.536 2.536 0 002.536-2.536V66.536L357.466 40a79.636 79.636 0 00-9.264-12.896V232.8h22.048z" fill="#00D280"/><path d="M272.922 105.728v94.744c.049.959.62 1.813 1.488 2.224l73.192 30.104a2.4 2.4 0 003.312-2.224V30.4a79.748 79.748 0 00-9.984-10.512l-66.776 82.4a6.398 6.398 0 00-1.232 3.44z" fill="#C2F7E1"/><path d="M135.818 147.544V43.2h-22.064a1.432 1.432 0 00-1.416 1.4v101.136a2.4 2.4 0 001.736 2.304l33.296 9.6c1.266.367 2.578.553 3.896.552h15.2l-30.648-10.648z" fill="#00D280"/><path d="M138.122 45.488l30.4 48.92v62.296a1.506 1.506 0 01-2.104 1.52l-30.592-10.136a2.583 2.583 0 01-1.648-2.28v-99.2c.016-4.088 1.784-4.592 3.944-1.12z" fill="#C2F7E1"/><path d="M44.426 217.752c-2.64.002-5.272.294-7.848.872l-32 7.2A79.717 79.717 0 0011.058 240l.608 1.064 74.568-23.312H44.426zM365.034 137.664l42.408-11.104-5.136-8.888-63.072 19.992h25.8z" fill="#00D280"/><path d="M309.474 235.776l47.36 30.4a4.505 4.505 0 011.84 3.368v31.728c0 1.952-1.2 2.488-2.664 1.192l-47.672-42.184a4.578 4.578 0 01-1.344-2.992V237.12c.016-1.608 1.12-2.216 2.48-1.344zM122.89 196.872l32.864-7.272a1.6 1.6 0 011.944 1.6v10.032a3.201 3.201 0 01-1.88 2.912l-33.176 15.024a1.602 1.602 0 01-2.256-1.456V200a3.2 3.2 0 012.504-3.128z" fill="#F5F9F9"/><path d="M130.594 229.6v13.232a4.53 4.53 0 01-1.6 3.2L102.89 266.08c-1.416 1.088-2.576.52-2.576-1.272v-18.4a4.42 4.42 0 012.024-3.472l25.864-14.744c1.312-.712 2.392-.088 2.392 1.408z" fill="#28AAF0"/><path d="M95.49 183.832l16.048-.872a1.602 1.602 0 011.688 1.6v9.24a1.664 1.664 0 01-1.32 1.6l-16 2.904a1.55 1.55 0 01-1.888-1.6v-11.28a1.6 1.6 0 011.472-1.592z" fill="#FF6446"/><path d="M55.138 97.248v26.648a4.296 4.296 0 002.664 3.768l21.032 7.432a2.247 2.247 0 003.2-2.264v-23.48a4.392 4.392 0 00-2.2-3.568l-21.216-10.68c-1.912-.96-3.48 0-3.48 2.144z" fill="#F5F9F9"/><path d="M172.122 67.944v14.328c.024.726.19 1.441.488 2.104l3.128 6.4c.8 1.704 1.512 1.544 1.512-.352V77.6a5.83 5.83 0 00-.336-1.768l-3.248-8.2c-.848-2.12-1.544-1.992-1.544.312z" fill="#FF6446"/><path d="M375.954 299.416h-39.856l35.76 35.664 16.376-28.376-8.752-6.168a6.116 6.116 0 00-3.528-1.12z" fill="#00D280"/><path d="M225.73 216.512c-24.68 0-50.448 20.68-50.448 20.68l7.456 116.944h85.976l7.456-116.944s-25.76-20.68-50.44-20.68z" fill="#A7816D"/><path d="M150.026 327.376s-7.4 40.72-11.816 54.128a.8.8 0 00.528 1.008l10.44 3.264a.802.802 0 001.016-.6c1.152-5.784 7.688-38.96 10.04-55.248l-10.208-2.552zM274.186 334.904l8.664-2.008c12.76 17.288 17 37.232 17.496 52.336a.8.8 0 01-.8.8l-10.4.12a.8.8 0 01-.8-.744c-1.064-16.504-7.672-39.256-14.16-50.504z" fill="#003C3C"/><path d="M164.81 354.136s-5.88 22.912-8.184 45.864h128.8a249.966 249.966 0 00-8.672-45.864H164.81z" fill="#5A7D7D"/><path d="M164.81 354.136L246.41 400h39.04a249.966 249.966 0 00-8.672-45.864H164.81z" fill="#003C3C"/><path d="M263.362 354.136h-88.36V246.848c21.504 8.616 65.712 9.8 88.36 0v107.288z" fill="#B4B48C"/><path d="M208.794 324.6v-3.2c14.688 0 26.32-5.744 35.416-17.544-14.4 4.608-34.016 4-49.816-1.864l1.112-3c16.992 6.296 38.528 6.312 52.376.04l4.968-2.248-2.968 4.576c-10.128 15.64-23.568 23.24-41.088 23.24z" fill="#848A6B"/><path d="M225.73 216.512v-6.24c-15.936 0-30.944 4.304-42.136 29.512-14.272 32.152-30.584 94.776-33.496 128.8a1.599 1.599 0 00.656 1.432c7.384 5.44 23.784 10.072 33.192 10.496a1.6 1.6 0 001.6-1.256l16.536-75.896a6.396 6.396 0 000-2.808c-6.544-28.552-6.816-53.936-4.944-66.72 1.888-13.032 14.4-17.32 28.592-17.32z" fill="#28AAF0"/><path d="M225.01 216.512v-6.24c15.936 0 30.936 4.304 42.128 29.512 14.28 32.16 17.512 96.464 20.208 130.536a1.601 1.601 0 01-.656 1.408c-7.376 5.432-23.752 10.072-33.168 10.504a1.6 1.6 0 01-1.64-1.296L237.25 306.32a6.387 6.387 0 01.056-2.728c6.904-28.8 16.672-59.816 14.664-72.584-1.896-12.072-12.776-14.496-26.96-14.496z" fill="#28AAF0"/><path d="M148.01 264.704c-9.92 17.2-17.6 40.44-18.992 45.368-1.392 4.928.8 10.952 5.536 16.984 5.024 6.352 15.2 13.08 25.68 2.872s5.92-25.392 1.208-26.632c-4.712-1.24-13.432-38.592-13.432-38.592zM310.866 293.192c4.472 12.648 6.224 19.456 6.608 24.704.384 5.248-.616 11.792-4.272 15.736-3.656 3.944-9.48 9.224-17.672 6.584a84.056 84.056 0 01-17.928-8.264c-4.696-2.712-6.04-5.872-5.368-11.656.672-5.784 6.264-18.32 15.744-21.688 9.48-3.368 22.888-5.416 22.888-5.416z" fill="#A7816D"/><path d="M313.354 300.488l1.016 3.2c-1.856 1.696-6.288 4.216-11.2 5.728a45.591 45.591 0 01-16.616 1.664v-3.76l26.8-6.832z" fill="#003C3C"/><path d="M193.858 225.816c-16.296 3.92-25.728 7.12-30.72 9.088a13.165 13.165 0 00-6.872 6.224l-26.96 52.712a.8.8 0 00.168.96c7.632 6.736 24.512 13.272 37.512 15.272l26.872-84.256zM257.602 225.816c16.288 3.92 25.72 7.12 30.712 9.088a13.134 13.134 0 016.872 6.224l26.968 52.712a.8.8 0 01-.176.96c-7.632 6.736-24.512 13.272-37.512 15.272l-26.864-84.256z" fill="#28AAF0"/><path d="M171.538 291.384l7.264-4.192a4.344 4.344 0 016.288 2.4 4.345 4.345 0 01-1.536 4.872L173.362 302l-1.824-10.616zM266.738 295.072l-6.76-3.872a4.05 4.05 0 00-5.856 2.216 4.056 4.056 0 001.416 4.504l9.496 7.024 1.704-9.872z" fill="#A7816D"/><path d="M254.89 220.984c5.24 1.2 9.6 3.944 15.272 8.064 12.416 20.4 10.984 66.688 3.456 99.48a17.044 17.044 0 005.6 4.368 3.038 3.038 0 01-1.792 1.56 5.6 5.6 0 01-4.8-.288 46.776 46.776 0 01-9.248-6.88 13.284 13.284 0 01-4-11.704c5.264-33.624 6.712-85.456-4.488-94.6zM193.994 222.976a32.212 32.212 0 00-16.648 7.2c-10.912 17.104-20.704 74.776-20.704 74.776 6.176 7.112 7.256 11.352 7.256 15.2 0 3.848-4.44 10.704-7.88 13.04 7.152 0 24.864-8.728 17.32-31.2 7-14.728 9.496-69.512 20.656-79.016z" fill="#003C3C"/><path d="M290.018 312.096l-6.072-15.632a6.17 6.17 0 00-4.736-3.84l-6.72-1.104a5.6 5.6 0 00-5.72 2.704l-3.832 6.632a12.423 12.423 0 00-1.16 9.768c1.104 3.68 2.736 7.2 4.72 8.544 5.6 2.72 11.68-2.104 11.68-2.104s-2.92 4.168-1.28 7.2c3.272 6.056 11.304 3.904 13.12-12.168z" fill="#A7816D"/><circle cx="178.402" cy="366.024" r="4.832" fill="#82C8FA"/><circle cx="184.402" cy="337.416" fill="#82C8FA" r="4.832"/><circle cx="190.122" cy="309.408" fill="#82C8FA" r="4.832"/><path d="M248.706 142.616c0-4.704 3.536-7.648 8.736-7.648 5.2 0 9.024 3.688 8.312 8.176-.8 5.264.912 7.624 5.088 9.248 3.088 1.2 5.392 3.384 5.384 5.824 0 5.072-3.808 4.384-4.72 6.08-1.384 2.576.512 5.176-3.064 7.368-4.96 3.048-12.648-2.208-15.776-10.832s-3.96-14.376-3.96-18.216z" fill="#003C3C"/><ellipse cx="256.179" cy="159.149" rx="7.032" ry="9.68" transform="rotate(-32.25 256.179 159.149)" fill="#28AAF0"/><path d="M213.274 168.512c-4.336 0-11.648-3.592-11.648-9.168 0-5.576 3.848-3.096 5.328-5.6 1.48-2.504-1.976-6.936.496-10.032s13.384 1.736 16.976 0c3.592-1.736 1.408-5.08 6.464-5.704 5.056-.624 8.8 6.568 14.216 7.312 5.416.744 11.032-.992 14 2.352s-1.36 10.528 0 14.616c1.36 4.088 9.024 10.848 8.8 16.944-.224 6.096-5.056 5.024-5.744 9.28-.688 4.256 3.896 6.976 1.792 11.064s-5.824-.248-8.424 2.352c-2.6 2.6-1.216 6.448-4.136 8.424-2.92 1.976-8.144 0-10.664-1.976-2.52-1.976-27.456-39.864-27.456-39.864z" fill="#003C3C"/><path d="M233.266 147.144c-20.216 0-29.456 22.984-29.456 42.944 0 3.904 1.16 9.288 4.592 10.52v25.12c12.168 5.96 25.248 6.864 36.384 0 0-9.448-.256-26.544 1.424-31.2 1.68-4.656 11.768-6.728 11.768-24.984 0-13.736-10.992-22.4-24.712-22.4z" fill="#A7816D"/><ellipse rx="7.496" ry="4.664" transform="rotate(-65.58 269.677 -102.346)" fill="#A7816D"/><path d="M209.418 177.48c-.04-2.048 1.016-4.088 2.808-4.088 1.792 0 7.024 2.584 8.728 5.144-2.752 1.328-9.792.728-11.536-1.056zM205.41 197.712c.064-2.536 2.272-4.128 5.72-4.128s8.392 2.4 11.2 4.88c-.576 2.728-5.32 4.096-8.448 4.096s-7.408-1.912-8.472-4.848z" fill="#614B3F"/><path d="M234.21 145.344c12.8 0 24.896 8.304 24.896 24.8 0 7.928-2.656 13.128-6.944 13.128-7.792 0-14.824-5.6-13.44-12.384.928-4.584-1.136-7.2-4.512-9.048-6-3.32-11.896-7.032-11.896-12.064 0-4.456 7.192-4.432 11.896-4.432zM133.21 297.6l26.328 10.936a81.972 81.972 0 01-20.552-3.952 22.083 22.083 0 01-6.976-3.536l1.2-3.448z" fill="#003C3C"/><path d="M148.106 309.416c-.384-7.2 2.544-17.344 5.76-20.552 2.032-2.04 7.824-4.376 11.776-5.816a4.648 4.648 0 015.768 2.304l3.384 6.832a13.205 13.205 0 011.352 5.16l.232 4.264a11.626 11.626 0 01-1.08 5.672 28.235 28.235 0 01-5.056 7.2 2.583 2.583 0 01-2.544.656 7.591 7.591 0 01-4.2-3.2s-10.968 2.096-15.392-2.52z" fill="#A7816D"/><path d="M281.306 328.968a5.631 5.631 0 01-2.352-.512l1.32-2.912c.736.33 1.584.3 2.296-.08 2.048-.984 3.848-4.04 4.944-8.368l3.104.8c-1.344 5.336-3.712 9.056-6.656 10.472a6.119 6.119 0 01-2.656.6zM159.362 323.2c-4.984 0-10.488-8-11.768-11.472l3-1.104c1.304 3.552 6.152 9.496 8.84 9.376l.168 3.2h-.24z" fill="#614B3F"/><circle cx="273.178" cy="262.32" fill="#003C3C" r="13.272"/><circle cx="273.298" cy="259.896" r="13.272" fill="#00D180"/><path d="M265.938 251.784c4.533-4.121 11.549-3.788 15.672.744" stroke="#8FE7C3" stroke-width="2"/><path d="M86.234 217.752l-74.568 23.312L80.338 360a80.08 80.08 0 0010.048 13.76V220.8a3.2 3.2 0 00-4.152-3.048z" fill="#C2F7E1"/><path d="M336.05 61.768v73.6a2.305 2.305 0 003.2 2.328l63.072-20L357.466 40l-.336-.56-19.408 18.4a6.157 6.157 0 00-1.672 3.928z" fill="#99F1CD"/><path d="M389.506 253.144v21.888a4.462 4.462 0 002 3.464l9.768 5.6 12.928-22.4-22.44-10.016a1.487 1.487 0 00-2.256 1.464zM82.034 89.152V51.888a6.4 6.4 0 00-1.776-4.096l-2.872-2.68L58.194 78.4l20.152 12.8c2.032 1.272 3.688.36 3.688-2.048z" fill="#FFE65A"/><path d="M156.762 16.08l12 32.864c.848 2.336 1.552 2.208 1.552-.28V24.216a6.872 6.872 0 00-.24-1.6L163.29 0h-6.864v14.16c.019.653.132 1.3.336 1.92z" fill="#F5F9F9"/><path d="M276.77 44v19.2c0 1.648.672 1.824 1.496.4L312.714 4l.048-.096a79.842 79.842 0 00-16.2-3.456L277.546 40.6a9.604 9.604 0 00-.776 3.4z" fill="#28AAF0"/><path d="M334.578 302.4v78.92a10.6 10.6 0 00.688 3.328 79.943 79.943 0 0022.2-24.648l14.712-25.488-33.496-33.784c-2.256-2.272-4.104-1.528-4.104 1.672z" fill="#99F1CD"/></svg>
