<svg viewBox="0 0 438 401" fill="none" xmlns="http://www.w3.org/2000/svg"><path d="M357.79 40.662a80 80 0 00-69.28-40H149.942a80 80 0 00-69.28 40l-69.28 120a80 80 0 000 80l69.28 120a79.998 79.998 0 0069.28 40H288.51a79.996 79.996 0 0069.28-40l69.272-120a79.998 79.998 0 000-80l-69.272-120z" fill="#BBEDE1"/><path d="M355.305 140.279a49.044 49.044 0 00-68.511 31.242h144.75a80.225 80.225 0 00-5.333-11.178l-40.399-69.996a79.622 79.622 0 00-30.507 49.932zM165.189 72.12c-2.172 0-4.337.252-6.451.75-2.793-28.292-21.766-52.385-48.615-61.733a79.754 79.754 0 00-29.62 29.445L48.439 96.12h144.79c-2.159-13.814-14.058-23.998-28.04-24z" fill="#F5F9F9"/><path d="M389.309 159.752a.958.958 0 00-1.525 0l-2.97 3.928-6.14-8.128a.95.95 0 00-1.525 0l-5.836 7.705c-31.529-6.092-58.627-23.018-85.573-23.018-30.387.032-84.112 39.266-119.681 39.266-28.742-.04-61.676-29.765-87.4-29.765-14.747 0-39.282 8.144-70.085 15.912a79.84 79.84 0 002.787 74.531l69.142 119.761a79.84 79.84 0 0069.141 39.92h138.292a79.84 79.84 0 0069.141-39.92l69.134-119.761a79.84 79.84 0 000-79.84l-.718-1.246c-11.394 3.713-22.116 6.204-31.889 6.34l-4.295-5.685z" fill="#5DBFA5"/><path d="M422.858 170.491a2.946 2.946 0 00-2.26-1.597c-2.714 0-3.88 6.179-4.287 9.277-6.132 4.32-12.088 9.581-18.268 15.122a2.921 2.921 0 00-2.243-1.549c-1.549 0-2.587 1.996-3.273 4.295l-.416-1.956c-.95-4.487-2.666-4.527-3.824-.079l-1.365 5.261c-.711-1.198-1.597-2.02-2.547-2.02-1.597 0-2.691 2.212-3.377 4.647l-.695-3.298c-.95-4.487-2.667-4.527-3.824-.087l-3.992 15.505c-9.022 5.964-19.098 10.818-30.939 13.165l-3.76-16.654c-1.014-4.472-2.731-4.488-3.824 0l-1.238 4.91 1.749.742-2.132.799-1.94 8.04c-.886-2.771-2.228-5.589-4.048-5.589-.958 0-1.717.758-2.316 1.876l-.75-3.545c-.95-4.495-2.675-4.535-3.824-.088l-2.978 11.457-.471.04c-1.302-3.05-3.466-6.555-6.531-6.555-3.817 0-5.589 5.422-6.308 8.655-29.501 6.771-52.694 25.461-76.718 38.188-15.362-7.338-29.901-12.487-43.481-12.487-15.266 0-28.432-10.124-41.35-22.938l-.958-3.529h2.906s-.662-9.43-3.457-9.43c-.638 0-1.197.495-1.684 1.254l-2.531-9.286c-.99-3.672-2.491-3.64-3.322.072l-1.237 5.533c-.519-2.267-1.373-4.463-2.723-4.463a2.164 2.164 0 00-1.652 1.198l-1.398-5.381c-.854-3.314-2.139-3.282-2.85.071l-.191.911c-.527-2.228-1.366-4.344-2.691-4.344-.926 0-1.685 1.03-2.292 2.396-14.754-14.707-30.626-27.09-50.123-27.09h-1.669c-.463-1.645-1.357-3.593-2.954-3.593-1.373 0-2.395 1.437-3.066 2.882-.75-2.044-2.004-4.08-3.992-4.08-1.597 0-2.914 1.326-3.872 2.906l-1.014-4.135-1.597-.607 1.301-.559-.894-3.681c-.798-3.329-2.1-3.321-2.858 0l-2.092 9.262-2.395-9.27c-.854-3.313-2.14-3.289-2.85.064l-1.286 5.98c-.503-1.293-1.19-2.283-2.131-2.283a1.41 1.41 0 00-.759.231l-2.164-8.327c-.862-3.313-2.14-3.289-2.85.064l-.878 4.2-1.126-4.264c-.862-3.313-2.148-3.289-2.85.064-.503-1.293-1.198-2.283-2.132-2.283-1.262 0-2.212 1.772-2.866 3.672-.264-2.171-1.118-7.241-3.242-7.241a2.202 2.202 0 00-1.692 1.173c-.376-1.988-1.062-4.359-2.228-5.07l-1.908 3.298a79.84 79.84 0 000 79.84l69.142 119.761a79.84 79.84 0 0069.141 39.92h138.292a79.84 79.84 0 0069.141-39.92l69.134-119.761A79.839 79.839 0 00428.183 164a2.144 2.144 0 00-1.389-.583c-2.18 0-3.337 3.912-3.936 7.074z" fill="#1B7064"/><path d="M57.868 189.54l7.657.068 6.395-18.183a1.212 1.212 0 00-.67.447L57.867 189.54z" fill="#33E39B"/><path d="M73.269 171.872a1.245 1.245 0 00-1.35-.447l-7.001 18.115h21.74L73.27 171.872z" fill="#99F1CD"/><path d="M87.992 191.568l-2.699-12.622c-.623-2.907-1.733-2.93-2.483-.056l-2.627 10.132c-.479-2.1-1.828-4.727-5.142-4.727-5.54 0-8.111 7.321-8.111 7.321h13.652v-.048h7.41zM57.764 182.507c-6.06 0-6.06 9.692-6.06 9.692H66.65s-2.826-9.692-8.886-9.692z" fill="#1B7064"/><path d="M366.642 201.061a2.063 2.063 0 00-1.101-.742l11.335 30.424 11.93-.428-22.164-29.254z" fill="#33E39B"/><path d="M363.305 201.061l-22.164 29.254h35.992l-11.6-29.964a2.069 2.069 0 00-2.228.71z" fill="#99F1CD"/><path d="M391.273 222.73c-3.689 0-6.18 3.601-7.561 6.387-.567-2.81-2.004-6.387-5.7-6.387-3.234 0-5.549 2.771-7.002 5.341l-1.757-8.319c-.615-2.906-1.732-2.93-2.483-.056l-2.627 10.108c-.535-2.1-1.86-4.695-5.173-4.695-5.541 0-8.12 7.29-8.12 7.29h46.483s0-9.669-6.06-9.669zM341.692 223.305c-6.06 0-6.06 9.693-6.06 9.693h14.946s-2.826-9.693-8.886-9.693z" fill="#1B7064"/><path d="M388.89 304.849l8.579-14.861-25.038-33.038a4.442 4.442 0 00-2.387-1.597s-.071.387 0 .573c6.211 16.313 18.846 48.923 18.846 48.923z" fill="#00D280"/><path d="M365.253 256.95l-47.673 62.906h62.643l8.838-15.314-19.017-49.189a4.48 4.48 0 00-4.791 1.597z" fill="#33E39B"/><path opacity=".75" d="M317.58 319.856h37.589l28.815-28.815-7.489-19.137-35.146 16.591-23.769 31.361z" fill="#99F1CD"/><path d="M23.217 260.726l9.953 17.236 21.2-56.014a6.743 6.743 0 00-3.616 2.443l-27.537 36.335z" fill="#00D280"/><path d="M61.644 224.391a6.8 6.8 0 00-7.273-2.451l-21.477 55.545 24.455 42.371h76.647l-72.352-95.465z" fill="#33E39B"/><path opacity=".75" d="M99.537 274.395l-18.955-25.022-45.11 21.397-2.586 6.699 24.47 42.387h16.2l25.98-45.461z" fill="#99F1CD"/><path fill-rule="evenodd" clip-rule="evenodd" d="M138.507 319.856H57.349l-5.373-9.286a7.025 7.025 0 014.383-3.632l.104-1.453-4.344-8.615c-.765.101-1.535.154-2.307.159.42.652.643 1.412.639 2.188 0 1.501-1.238 2.515-3.298 3.01l-11.888-20.599a17.78 17.78 0 012.85-.215 10.51 10.51 0 012.595.319c.016-2.898 3.832-4.974 9.15-4.974h.527v-.064c-.144-2.539.71-4.726 5.868-5.022 5.158-.295 10.994 1.174 11.265 5.836.013.123.013.246 0 .368 3.29.223 7.897 1.629 9.925 3.744a14.82 14.82 0 013.936-.726c4.04-.232 6.028 2.738 6.307 6.155.387-.079.78-.129 1.174-.151 3.752-.216 8.024 1.341 8.287 6.012.004.056.004.112 0 .167 5.214.072 8.064 3.673 8.064 5.813a5.07 5.07 0 01-2.619 4.583c1.249.335 2.461.795 3.617 1.373.641-.107 1.29-.161 1.94-.16a11.493 11.493 0 018.08 3.322 10.889 10.889 0 017.904-3.322c11.178 0 14.372 15.17 14.372 15.17zm-59.873-19.058h-.32l-.51 2.738a9.476 9.476 0 012.762-1.333 8.31 8.31 0 01-1.932-1.405zm-1.397 0l-.966 4.527c-.128-.048-.263-.089-.397-.13-.068-.02-.135-.04-.202-.062a5.508 5.508 0 00-1.094-1.485l-1.333-3.313c1.301.287 2.628.442 3.96.463h.032zM71.984 300a8.783 8.783 0 01-4.743-3.194l-.032.016a14.398 14.398 0 01-2.826-.375l-4.288 8.04.08 2.546a9.553 9.553 0 013.49 1.988c.19-.231.398-.463.606-.686a5.288 5.288 0 01-.431-1.765c-.152-2.531.439-4.71 4.191-4.926 1.68-.122 3.363.18 4.895.878L71.984 300zm-10.627-5.589c.247.466.6.868 1.03 1.173l-2.395 4.376-.328-5.214a10.094 10.094 0 001.677-.351l.016.016zm-7.425 2.099l4.08 7.074.87-1.58-.264-7.186h-.303a5.053 5.053 0 01-1.254-.168 5.586 5.586 0 01-3.13 1.86zM401.652 273.996a16.003 16.003 0 00-4.215-.471c-3.122 0-5.398 2.019-6.587 4.654a20.682 20.682 0 00-2.339-.311v-.799c0-2.539-2.947-5.588-7.785-5.588s-9.269 1.149-9.269 3.768a4.878 4.878 0 001.085 3.114 10.028 10.028 0 00-3.01-.447c-5.325 0-9.149 2.084-9.149 4.99 0 2.714 1.429 4.495 3.92 5.477a4.173 4.173 0 00-1.964 3.696c0 2.843 3.313 4.958 8.239 4.958a19.77 19.77 0 002.675-.167l4.176 8.295a12.73 12.73 0 00-6.14 4.2 6.388 6.388 0 00-5.23-2.627 8.55 8.55 0 00-5.628 2.299 11.178 11.178 0 00-8.823-4.327c-6.131 0-9.852 4.559-11.976 8.679-1.149-2.459-2.938-4.687-5.652-4.687-2.396 0-4.304 1.749-5.733 3.864-1.98-3.88-5.397-7.856-11.114-7.856-7.529 0-11.425 6.866-13.181 11.361-1.509-4.495-5.054-11.361-12.575-11.361-11.178 0-14.371 15.17-14.371 15.17h103.217l7.321-12.687a10.644 10.644 0 00-6.387-2.459v-.231l4.288-8.04c.409.107.825.187 1.245.239.519 1.597 2.395 2.795 5.094 3.146l15.601-27.018c-.204 0-.4-.01-.6-.02-.207-.01-.418-.02-.646-.02-2.283-.024-3.688.447-4.487 1.206zm-24.846 25.652l-1.82-3.193a5.588 5.588 0 003.137-1.861c.297.073.598.121.903.144l-2.22 4.91zm.766 1.326l1.501 2.594 4.376-8a3.285 3.285 0 01-1.03-1.173 9.929 9.929 0 01-2.212.367l-2.635 6.212z" fill="#003C3C"/><path d="M80.503 359.944a79.84 79.84 0 0069.141 39.92h138.292a79.84 79.84 0 0069.141-39.92l23.154-40.088H57.349l23.154 40.088z" fill="#B4B48C"/><path d="M195.624 129.828a23.003 23.003 0 1145.996 0v62.762h-39.992v-13.085c-2.826-.974-5.796-5.334-6.004-9.917-.239-5.181 0-39.76 0-39.76z" fill="#E6BEAA"/><path d="M208.399 142.075a24.55 24.55 0 0033.221 22.97v-35.217a22.922 22.922 0 00-3.193-11.681 24.542 24.542 0 00-30.036 23.952l.008-.024z" fill="#003C3C"/><path d="M298.65 225.101s28.352 66.763 28.104 79.785c-.327 17.397-21.421 30.722-31.417 18.706-9.996-12.016-19.697-52.024-19.697-52.024l23.01-46.467z" fill="#E6BEAA"/><path d="M319.545 278.315l1.325 3.816-36.519 31.154-6.172-21.038 41.366-13.932z" fill="#003C3C"/><path d="M146.658 227.002s-26.179 64.535-27.145 77.221c-1.43 19.258 21.916 29.868 31.425 18.124 9.509-11.745 19.066-50.834 19.066-50.834l-23.346-44.511z" fill="#E6BEAA"/><path d="M126.451 278.81l31.76 32.208 4.543-14.563-36.303-17.645z" fill="#003C3C"/><path d="M159.177 323.481l5.198 76.383H278.69l5.19-76.383H159.177z" fill="#336363"/><path d="M181.988 377.405c27.904 17.948 76.822 21.094 97.221 14.754l4.671-68.662H159.177l.839 12.247c2.035 13.022 3.896 30.028 21.972 41.661z" fill="#003C3C"/><path d="M201.628 123.105c-7.832-5.309-19.297-12.606-23.577-10.778-2.666 1.142-2.594 4.559.464 8.687 3.057 4.127 17.085 12.71 17.085 12.71l6.028-10.619z" fill="#5A7D7D"/><path d="M230.778 145.796c3.732 0 7.423-.772 10.842-2.267v-13.701a23.002 23.002 0 10-45.996 0v3.896c7.649 7.457 22.946 12.072 35.154 12.072z" fill="#336363"/><path d="M196.271 172.958c1.054 3.193 3.258 5.844 5.373 6.578v-7.121a10.916 10.916 0 01-5.373.543z" fill="#003C3C"/><path d="M199.648 140.271l-8.215 8.782a2.906 2.906 0 00.718 4.519 19.413 19.413 0 005.884 2.3c4.072.678 1.613-15.601 1.613-15.601z" fill="#E6BEAA"/><path d="M328.998 268.287l-30.771-53.493a21.97 21.97 0 00-7.736-7.88c-11.258-6.763-39.801-21.948-68.959-21.948-28.606 0-56.606 14.61-68.295 21.557a21.986 21.986 0 00-8.447 9.053l-27.345 54.531a3.992 3.992 0 001.74 5.302l41.07 19.64c-1.453 12.679-5.589 29.845-6.18 40.663-1.03 18.922 11.018 22.707 21.685 22.707h91.569c10.675 0 22.714-3.785 21.685-22.707-.543-9.964-2.132-25.245-3.521-37.525l42.067-24.471a3.992 3.992 0 001.438-5.429z" fill="#00D280"/><ellipse cx="207.856" cy="147.185" rx="4.583" ry="8.727" fill="#E6BEAA"/><path d="M272.487 234.171c0-13.11 10.674-31.401 10.674-31.401l-61.629 23.042-61.636-23.058s10.674 18.291 10.674 31.401c-14.371 35.338 1.142 89.31 1.142 89.31h99.609s15.553-53.956 1.166-89.294z" fill="#003C3C"/><path d="M285.644 204.119c.759-3.664-2.746-5.684-9.628-8.926-6.883-3.241-10.068-3.193-11.913-1.245-1.844 1.948-12.519 16.495-19.529 31.864h20.583s14.228-20.343 18.004-23.058l2.483 1.365zM157.421 204.119c-.799-3.664 2.746-5.684 9.628-8.926 6.883-3.241 10.06-3.193 11.913-1.245 1.852 1.948 12.519 16.495 19.529 31.864h-20.583s-14.228-20.343-18.004-23.058l-2.483 1.365z" fill="#5A7D7D"/><path d="M260.143 282.139h13.413c4.408 0 8.312 3.234 9.669 7.984 4.064 14.372 11.441 44.288 7.042 59.577-5.916 20.543-37.573 15.489-37.573 15.489v-83.05h7.449zM182.954 282.139h-13.445c-4.416 0-8.32 3.234-9.669 7.984-4.072 14.372-11.441 44.288-7.042 59.577 5.916 20.543 37.525 15.489 37.525 15.489v-83.05h-7.369z" fill="#336363"/><path d="M251.089 211.76h-59.121s-25.174 31.8-25.174 126.755c0 33.133 8.423 34.331 54.738 34.331 46.316 0 54.731-1.23 54.731-34.331 0-94.955-25.174-126.755-25.174-126.755z" fill="#5A7D7D"/><path fill-rule="evenodd" clip-rule="evenodd" d="M200.78 210.071a22.46 22.46 0 0120.753-13.872c12.393-.004 22.445 10.034 22.459 22.427a22.46 22.46 0 11-43.212-8.555zm3.555 8.593c.007 9.491 7.706 17.18 17.198 17.176a17.189 17.189 0 0017.181-17.214c-.013-9.491-7.717-17.176-17.208-17.165-9.492.01-17.178 7.711-17.171 17.203z" fill="#336363"/><path d="M221.532 266.475h-50.634c6.323 10.379 25.317 12.638 50.634 12.638 25.318 0 44.312-2.291 50.627-12.638h-50.627z" fill="#003C3C"/><rect x="166.059" y="209.564" width="110.93" height="63.393" rx="19.97" fill="#336363"/><rect x="213.548" y="260.183" width="15.952" height="37.86" rx="2.05" fill="#003C3C"/><rect x="232.479" y="292.319" width="21.9" height="9.277" rx="1.34" transform="rotate(180 232.479 292.319)" fill="#003C3C"/><circle cx="253.612" cy="237.964" fill="#003C3C" r="16.862"/><circle cx="251.433" cy="235.784" fill="#00D180" r="16.862"/><path d="M237.509 235.784a14.091 14.091 0 0114.099-14.1" stroke="#8FE7C3" stroke-width="2"/><path d="M184.606 353.612v-3.193a82.102 82.102 0 0048.144-15.817c13.852-10.339 21.972-23.872 22.866-38.107l3.194.199c-.958 15.17-9.533 29.541-24.152 40.463a85.303 85.303 0 01-50.052 16.455z" fill="#003C3C"/><path d="M152.008 384.087a43.016 43.016 0 004.838-18.555s-9.373-3.88-21.254 2.26a43.114 43.114 0 003.394-18.228s-9.43-3.193-20.759 3.418a43.033 43.033 0 00-2.227-15.17s-6.931-.264-14.428 5.229a56.056 56.056 0 00-3.505-14.826 45.131 45.131 0 00-14.515 10.379c-.798-8.439-5.053-13.054-5.053-13.054a31.435 31.435 0 00-13.797 6.947l15.8 27.457a79.841 79.841 0 0069.142 39.92h20.368a41.859 41.859 0 007.528-11.793s-11.84-6.826-25.532-3.984zM63.888 331.201a25.546 25.546 0 00-4.79-8.311l4.79 8.311zM365.572 324.383a42.755 42.755 0 00-5.125 11.177c-5.39-7.185-11.865-8.782-11.865-8.782a31.406 31.406 0 00-7.984 14.371c-7.553-7.984-15.832-8.223-15.832-8.223a31.343 31.343 0 00-4.631 18.219 54.954 54.954 0 00-11.449-5.485 45.508 45.508 0 00-1.325 18.946 43.408 43.408 0 00-16.934-7.529 40.984 40.984 0 00-1.461 15.01 42.964 42.964 0 00-20.192.463s-.551 5.358 2.739 11.977c-10.667-.128-16.479 5.397-16.479 5.397a30.597 30.597 0 004.287 9.98h28.639a79.84 79.84 0 0069.141-39.92l16.503-28.591a53.8 53.8 0 00-8.032-7.01z" fill="#1B7064"/><path d="M138.339 382.778s-9.629-3.625-21.421 3.106a43.046 43.046 0 004.75-16.942s-11.617-2.212-22.898 3.273a43.04 43.04 0 00-.271-17.764 41.162 41.162 0 00-17.262 6.722 79.839 79.839 0 0054.164 37.397 42.87 42.87 0 002.938-15.792zM345.477 361.245A56.406 56.406 0 00330.139 352a46.101 46.101 0 00-1.86 22.107c-9.19-7.105-17.828-5.692-17.828-5.692a31.2 31.2 0 00-.535 20.91 44.147 44.147 0 00-22.946-2.507 40.798 40.798 0 003.249 13.046 79.84 79.84 0 0066.858-39.92l5.126-8.887c-6.435-4.726-12.311-4.79-12.311-4.79a31.25 31.25 0 00-4.415 14.978z" fill="#003C3C"/><path fill-rule="evenodd" clip-rule="evenodd" d="M250.691 244.501a1.226 1.226 0 01-.476-.6l-4.425 2.503-.308-15.896 4.417 2.772-.033-1.519-3.855-2.425c-.109-.07-.731-.428-1.279-.118-.248.14-.539.453-.526 1.15l.305 16.092c.004.139.046.854.6 1.197.252.155.669.274 1.255-.057l5.58-3.155c-.581.328-1 .216-1.255.056z" fill="#003C3C"/><path fill-rule="evenodd" clip-rule="evenodd" d="M262.864 236.084l-11.213-7.052c-.116-.075-.738-.436-1.288-.125-.247.14-.54.451-.527 1.148l.03 1.706 1.289.809-.051-2.368 11.07 6.938-2.06 1.164a1.179 1.179 0 01.25.642l.003.047c.004.653-.58 1.018-.697 1.084l3.223-1.821c.119-.068.7-.432.697-1.085-.005-.295-.132-.725-.726-1.087z" fill="#003C3C"/><path fill-rule="evenodd" clip-rule="evenodd" d="M260.364 238.946l.003.047c.004.653-.58 1.018-.703 1.088l-7.724 4.367c-.585.331-1.002.212-1.255.057a1.242 1.242 0 01-.47-.604 1.85 1.85 0 01-.125-.595l-.195-10.024-.029-1.521 1.293.807 8.491 5.333c.176.106.333.242.464.403a1.179 1.179 0 01.25.642zm-1.42.02l-7.76-4.874.178 9.161 7.582-4.287z" fill="#003C3C"/></svg>
