<svg viewBox="0 0 447 400" fill="none" xmlns="http://www.w3.org/2000/svg"><mask id="a" maskUnits="userSpaceOnUse" x="0" y="0" width="447" height="400"><path fill-rule="evenodd" clip-rule="evenodd" d="M0 0h446.612v400H0V0z" fill="#fff"/></mask><g mask="url(#a)"><path d="M353.935 28.84a53.242 53.242 0 00-46.116-26.608H138.794A53.24 53.24 0 0092.678 28.84L8.165 175.18a53.195 53.195 0 000 53.214l84.513 146.339a53.24 53.24 0 0046.116 26.607h169.025a53.24 53.24 0 0046.116-26.607l84.512-146.339a53.193 53.193 0 000-53.214l-84.512-146.34z" fill="#B5C3C3"/><path d="M106.852 160.246a4.592 4.592 0 00-7.956 4.583 4.592 4.592 0 006.259 1.702 4.62 4.62 0 001.697-6.285zM95.207 139.858a4.592 4.592 0 00-7.936 4.619 4.593 4.593 0 006.272 1.667 4.622 4.622 0 001.663-6.286zM83.561 119.47a4.593 4.593 0 00-6.276-1.652 4.588 4.588 0 00-1.66 6.271 4.592 4.592 0 008.41-1.131 4.589 4.589 0 00-.474-3.488z" fill="#5A7D7D"/><ellipse cx="91.214" cy="182.895" rx="4.592" ry="4.59" fill="#5A7D7D"/><ellipse cx="79.469" cy="162.54" rx="4.592" ry="4.59" fill="#5A7D7D"/><ellipse cx="67.69" cy="142.152" rx="4.592" ry="4.59" fill="#5A7D7D"/><path d="M59.904 119.47a4.626 4.626 0 00-8.484 1.083 4.622 4.622 0 001.651 4.873 4.627 4.627 0 005.137.33 4.59 4.59 0 001.697-6.286zM83.561 200.988a4.592 4.592 0 00-7.935 4.619 4.592 4.592 0 006.272 1.666 4.62 4.62 0 001.663-6.285zM71.683 180.6a4.626 4.626 0 00-8.484 1.083 4.622 4.622 0 001.65 4.873 4.627 4.627 0 005.137.33 4.59 4.59 0 001.697-6.286zM59.904 160.246a4.592 4.592 0 00-6.266-1.677 4.588 4.588 0 00-1.69 6.26 4.592 4.592 0 006.26 1.702 4.62 4.62 0 001.696-6.285zM48.126 139.858a4.592 4.592 0 00-7.936 4.619 4.593 4.593 0 006.272 1.667 4.622 4.622 0 001.664-6.286z" fill="#5A7D7D"/><ellipse cx="55.911" cy="203.282" rx="4.592" ry="4.59" fill="#5A7D7D"/><ellipse cx="44.133" cy="182.895" rx="4.592" ry="4.59" fill="#5A7D7D"/><ellipse cx="32.388" cy="162.54" rx="4.592" ry="4.59" fill="#5A7D7D"/><path d="M24.602 180.6a4.626 4.626 0 00-8.484 1.083 4.622 4.622 0 001.65 4.873 4.627 4.627 0 005.137.33 4.59 4.59 0 001.697-6.286z" fill="#5A7D7D"/><path fill-rule="evenodd" clip-rule="evenodd" d="M106.852 68.75c0-22.042 17.876-39.91 39.927-39.91s39.927 17.868 39.927 39.91c0 22.042-17.876 39.911-39.927 39.911s-39.927-17.869-39.927-39.91zm59.891 0c0-11.021-8.938-19.955-19.964-19.955-11.025 0-19.963 8.934-19.963 19.955 0 11.021 8.938 19.955 19.963 19.955 11.026 0 19.964-8.934 19.964-19.955z" fill="#003C3C"/><path d="M252.859 321.942l14.116-14.111 53.242 53.22-14.116 14.111-53.242-53.22z" fill="#FF6446"/><path d="M252.859 361.028l53.242-53.221 14.116 14.111-53.242 53.22-14.116-14.11z" fill="#FF6446"/><path d="M222.574 77.896c-6.288-.565-12.577-.831-19.231-.831v-16.63c6.954 0 13.908.3 20.662.865l-1.431 16.596z" fill="#003C3C"/><path fill-rule="evenodd" clip-rule="evenodd" d="M242.504 80.59a144.563 144.563 0 0137.366 12.04l7.32-14.867a161.026 161.026 0 00-41.591-13.536l-3.095 16.363zm70.971 51.285c-.965-10.742-6.821-20.587-17.468-29.201l10.481-12.904c14.041 11.374 22.193 25.443 23.557 40.642l-16.57 1.463zm-22.958 46.297l9.649 13.57-.033.066a70.811 70.811 0 0026.651-37.516l-15.838-5.122a54.544 54.544 0 01-20.429 29.002zm-53.569 32.56l-1.863-16.629a180.944 180.944 0 0038.962-7.616l5.557 15.665a194.125 194.125 0 01-42.656 8.58zm-65.015-6.917l4.592 15.997a238.424 238.424 0 0139.627-6.751l-1.796-16.63a252.912 252.912 0 00-42.423 7.384zm-40.493 47.493l-14.041-8.946a84.736 84.736 0 0133.639-30.599l7.586 14.801a68.405 68.405 0 00-27.184 24.744zm-22.126 17.495c0 13.868 5.989 27.937 17.269 40.675l12.444-11.009c-8.552-9.711-13.077-19.922-13.077-29.666v-1.963l-16.636-1.064v3.027zm34.138 55.775a134.206 134.206 0 0039.927 19.09l4.691-15.997a115.924 115.924 0 01-34.936-16.63l-9.682 13.537z" fill="#003C3C"/><path d="M226.634 349.788a158.01 158.01 0 01-21.029-1.397l2.23-16.629c6.231.838 12.511 1.26 18.799 1.264v16.762z" fill="#003C3C"/><path d="M406.305 235.045c-17.401 0-34.803-56.54-56.563-56.54-31.476 0-83.182 113.08-83.182 113.08h135.387l36.6-63.192a52.618 52.618 0 006.654-18.791 13.311 13.311 0 00-3.893-.665c-13.242 0-17.601 26.108-35.003 26.108z" fill="#5A7D7D"/></g></svg>
