<svg width="454" height="80" viewBox="0 0 454 80" fill="none" xmlns="http://www.w3.org/2000/svg">
  <g clip-path="url(#clip0)">
    <path d="M102.767 68.967L72.933 15.733c-2.466-4.333-8.8-4.333-11.266 0l-3.2 5.7 3.7 6.567 5.166-9.033 29.734 52.866h-10.6c.567 3.367-2.367 6.667-6.5 6.667H97.1c4.933 0 8-5.333 5.667-9.533z" fill="#00DC82"/>
    <path d="M30.767 71.833H6.5L43.133 6.667l11.9 20.966 3.467-6.2-10.4-18.5a5.657 5.657 0 00-9.933.034L.734 69.8c-2.2 3.933.7 8.7 5.266 8.7h31.267c-4.134 0-7.034-3.3-6.5-6.667z" fill="#00DC82"/>
    <path d="M86.5 71.833c-.1-.6-.3-1.2-.633-1.8L62.2 28l-3.7-6.567-3.467 6.2L31.4 70.067a5.66 5.66 0 00-.633 1.766c-.567 3.367 2.366 6.667 6.5 6.667H80c4.133 0 7.033-3.3 6.5-6.667zm-48.933 0l21.1-37.4 21 37.4h-42.1z" fill="#00DC82"/>
    <path fill-rule="evenodd" clip-rule="evenodd" d="M178.667 20.3v58.167h-3.4c-2.067 0-4-1-5.2-2.7L141.2 34.733v43.7h-2.6a4.24 4.24 0 01-4.233-4.233V20.333h2.566c2.067 0 4 .967 5.167 2.634L171.8 64.4v-40c-.067-2.3 1.1-4 4.367-4.067h2.5V20.3zm59.966-.067v35.5c.067 4.034-.866 8.067-2.7 11.6a19.804 19.804 0 01-7.466 8.134 19.335 19.335 0 01-10.7 3c-3.734 0-7.467-.967-10.8-2.934a20.282 20.282 0 01-7.467-8.066 24.712 24.712 0 01-2.7-11.667V20.3h3.833a3.66 3.66 0 012.667 1.133c.7.734 1.1 1.7 1.1 2.8v31.4c-.067 2.7.567 5.334 1.833 7.7 2.367 4.4 6.767 7.134 11.534 7.134 7.6.033 13.8-6.5 13.833-14.6v-31.6c0-1.034.3-2.067.9-2.867.7-.8 1.6-1.233 2.6-1.167h3.533zM296.5 78.467c-3.1-.134-4.467-1-6.3-3.467l-13.867-19.6L262.7 75c-1.267 1.833-2.3 3.333-5.533 3.467h-5.334l20.2-29.067-20.366-29.1h5.4c3.467 0 4.633 1.367 6.566 4L276.9 43.167 290.167 24.3c2.067-2.967 2.733-3.8 6.333-4l5.133.033-20.5 28.9L301.767 78.5c.033-.033-4.367-.033-5.267-.033zm60.1-54.334c0 1.067-.4 2.034-1.133 2.734-.7.666-1.667 1.066-2.634 1h-13.666v50.6h-3.9c-1 0-2-.367-2.8-1.134-.734-.7-1.134-1.733-1.134-2.8V27.867h-13.666c-.967 0-1.9-.3-2.634-1.067-.733-.7-1.133-1.733-1.1-2.8l-.033-3.733h42.7v3.866z" fill="#003C3C"/>
    <path fill-rule="evenodd" clip-rule="evenodd" d="M372.333 76.1c-2.433-1.467-4.533-3.667-5.966-6.267-.4-.6-.634-1.4-.667-2.2 0-1.033.4-2 1.133-2.666.634-.734 1.467-1.1 2.4-1.234 1.367.2 2.6.9 3.4 2.067 1.7 3.033 4.767 4.867 8 4.767 5.4.166 9.9-4.4 10.034-10.167V24.233c-.034-1.066.4-2.1 1.133-2.8.733-.733 1.7-1.166 2.667-1.166l3.766.033v39.833C398.367 66.7 395.067 72.8 389.7 76c-5.367 3.267-11.933 3.333-17.333.133l-.034-.033z" fill="#00DC82"/>
    <path d="M433.533 20.333h.667c2.933 0 5.833.7 8.667 2.134.9.5 1.8 1.066 2.666 1.7.434.3 1.134.9 2.1 1.766 1 1.1 1.734 1.967 2.167 2.634.4.566.733 1.133 1.033 1.7l-3.633 1.8c-1.733.866-3.8.5-5.2-.867-2.2-2.167-4.567-3.267-8.2-3.4-3.467 0-6.267 1.033-8.4 3.067-.8.866-1.3 1.566-1.5 2.1-.6 1.2-.933 2.4-.933 3.666v.267c0 1.767.666 3.167 1.966 4.133.6.467 1.167.834 1.7 1.134 1.334.733 3.334 1.466 5.967 2.2 1.967.566 4.333 1.133 7.1 1.733 1.533.433 2.833.9 3.867 1.4 1 .5 2.066 1.133 3.133 1.967.967.8 1.8 1.666 2.533 2.566 2.034 2.767 3.067 5.834 3.067 9.167v.2c0 3.3-1 6.433-2.967 9.4-.333.533-.933 1.267-1.8 2.2-1.2 1.1-2.166 1.867-2.933 2.333-.833.5-1.733.967-2.7 1.4-2.7 1.134-5.5 1.7-8.4 1.7-4.467 0-8.567-1.333-12.267-3.933-.666-.5-1.366-1.1-2.1-1.767-2.8-2.733-3.3-6.233-.8-8 1.667-1.233 3.634-.466 4.467.867.333.5.867 1.067 1.567 1.733 1 .9 1.8 1.534 2.433 1.867 2.1 1.167 4.267 1.733 6.6 1.733h.267c2.3 0 4.5-.566 6.566-1.7A9.814 9.814 0 00442 67.9c.7-.7 1.2-1.333 1.533-1.9.867-1.533 1.334-3.1 1.334-4.733 0-2.634-1.1-4.767-3.334-6.367-.666-.4-1.233-.733-1.733-.933-.9-.4-2.3-.8-4.233-1.167-5.434-1.233-9.367-2.5-11.834-3.8-5.466-2.7-8.2-6.8-8.2-12.333 0-3.667 1.2-7 3.6-10a16.97 16.97 0 012.467-2.434c1.067-.8 2-1.4 2.767-1.833.866-.467 1.933-.9 3.166-1.267 1.967-.5 4-.8 6-.8z" fill="#00DC82"/>
  </g>
  <defs>
    <clipPath id="clip0">
      <path fill="#fff" d="M0 0h453.333v80H0z"/>
    </clipPath>
  </defs>
</svg>
